<svg xmlns="http://www.w3.org/2000/svg" width="708.941" height="44.78"><path d="M776.323 9897.4v-8.78h-8.359l.2-1.06h-13.625c-.147 1.06-.787 4.61-1.524 7.59v-6.53h-7.18l.1-1.06H731.87a71.367 71.367 0 0 1-2.164 11.09h9.786l.59-2.25h.885v3.12h-10.376v7.44h16.228v.86h-15.441v13.35h9c-1.721.96-4.573 1.25-9.786 1.25v9.84a41.334 41.334 0 0 0 15.49-2.59v2.59h14.261v-10.85h3.884v.91a.715.715 0 0 1-.836.58h-1.868v9.41h7.818c4.623 0 6.787-2.16 6.787-5.72v-13.53h-15.639v-.87h15.146v-12.67h-1.328v-2.12h2.016Zm-13.228 2.12H750.8v-3.12h1.918a10.935 10.935 0 0 1-.787 2.25h9.687l.492-2.25h.99v3.12Zm-.049 8.54h-2.557v-1.58h2.557v1.58Zm-16.227 5.19h-2.754v-1.44h2.754v1.44Zm63.078 17.62v-41.72h-15c-.2 0-8.359 2.45-9.49 2.78v14.5l9.638-2.64v27.08H809.9Zm57.968-1.01v-10.32h-7.475v-.87h6.934v-26.02h-.885l1.131-4.99h-8.753l-.984 4.99h-.246a43.412 43.412 0 0 0-.737-4.99h-7.475a25.691 25.691 0 0 1 1.033 4.99h-1.131a28.56 28.56 0 0 0-.836-4.99h-7.474a20.779 20.779 0 0 1 1.131 4.99h-.984v26.02H848v.87h-7.671v-9.36h-6.392v-.77h6.392v-21.18h-18.196v10.23h6.835v.82h-5.95v21.31h5.95v.39c0 .72-.393.91-1.278.91h-5.557v10.18h8.015c6.295 0 9.491-1.68 10.032-8.64v6.43H848v2.4h12.39v-2.4h7.475Zm-8.311-27.41h-1.967v-1.68h1.967v1.68Zm0 8.06h-1.967v-1.63h1.967v1.63Zm-8.753-8.06h-1.868v-1.68h1.867v1.68Zm0 8.06h-1.868v-1.63h1.867v1.63Zm88.547 21.8v-14.55c-10.966-3.31-15.047-12.53-15.047-29.86h-27.243v13.3h12.1c-2.262 9.5-7.819 15.17-15.785 16.56v14.55c10.523-1.11 18.539-6.92 23.7-15.46 4.427 7.2 11.457 13.01 22.275 15.46Zm52.9-28.04v-16.47h-28.227v16.47h28.226Zm1.131 9.31v-8.49h-30.194v-9.94h-1.622v-7.44h-12.49v7.44h-1.623v11.86h1.623v11.95c-.492 0-1.033.05-1.623.05v12.72c6.589-.33 11.064-1.53 15.1-3.84v1.63a15.583 15.583 0 0 0 2.852-1 16.28 16.28 0 0 1-1.622 3.79h7.867a29.587 29.587 0 0 0 1.721-7.73h.984a36.979 36.979 0 0 1-1.672 7.73h7.868c.442-1.15.836-5.04 1.033-8.93h2.114v.48c0 .33-.049.43-.393.43h-1.332v8.07h3.885c5.114 0 7.327-1.64 7.327-7.73v-10.13h-15.736c.1-.29.2-.58.295-.92h15.637Zm-13.768-19.25h-2.951v-1.53h2.951v1.53Zm0 4.71h-2.951v-1.54h2.951v1.54Zm-13.425 14.54a4.984 4.984 0 0 1-3 2.74v-2.21a7.633 7.633 0 0 1-1.622 1.35v-8.45h1.131v6.57h3.491Zm81.515-25.06h-13.22a21.9 21.9 0 0 1-1.73 5.04v-4.7h-6.54v-1.25H1012v1.25h-8.9v9.22h8.9v.86h-10.37v10.08h10.28a66.262 66.262 0 0 1-10.28 2.26v12.58c1.13-.19 2.16-.39 3.19-.63v9.03h40.72v-21.99h-11.51c.45-.43.94-.81 1.38-1.25h11.85v-10.08h-3.79a50.922 50.922 0 0 0 4.23-10.42Zm-17.9 9.56a5.622 5.622 0 0 1-1.03 1.15h-2.56v-1.15h3.59Zm1.73 20.54h-12.69v-1.1h12.69v1.1Zm0 5.38h-12.69v-1.1h12.69v1.1Zm71.92-30.48a6 6 0 0 0-6.14-5.96 5.917 5.917 0 0 0-5.9 5.96 5.85 5.85 0 0 0 5.9 5.76 5.941 5.941 0 0 0 6.139-5.76Zm-.93 13.1v-8.35a7 7 0 0 1-5.11 2.11 6.918 6.918 0 0 1-7.04-6.86 6.755 6.755 0 0 1 1.63-4.42h-33.44v14.11h28.67v1.97c0 7.92-3.49 11.62-18 11.62h-10.08v14.07h10.18c23.309 0 33.189-9.36 33.189-24.25Zm-3.49-13.1a1.672 1.672 0 0 1-1.72 1.44 1.493 1.493 0 0 1-1.43-1.44 1.556 1.556 0 0 1 1.43-1.59 1.711 1.711 0 0 1 1.719 1.59Zm57.42 5.66v-1.2h-14.41v1.2c0 11.33-5.16 17.38-12.24 17.38h-1.52v-27.99h-14.46v42.25h13.82c19.569 0 28.809-12.05 28.809-31.64Zm52.51-2.88v-8.02h-6.79v8.02h6.79Zm-7.87 0v-8.02h-6.83v8.02h6.83Zm7.67 5.09v-4.03h-15.63v-6.73h-10.82v-2.01h-14.46v2.01h-3.05v14.07h3.05v11.14c0 9.6 4.47 15.03 15.83 15.03h24.59v-13.97h-22.42c-2.81 0-3.54-1.59-3.54-3.12v-9.08h8.45l2.91-.38v.38c0 .87-.4 1.39-2.91 1.39h-3.68v9.94h5.16c13.619 0 16.519-6.29 16.519-14.64Zm33.82 4.66v-14.55c-4.23-1.49-14.9-2.35-22.62-2.35v13.78a98.323 98.323 0 0 1 22.619 3.12Zm21.39-2.64v-13.21h-14.45v10.76c0 9.79-4.87 15.84-17.07 15.84h-12.49v14.07h15.1c20.999 0 28.909-11.52 28.909-27.46Zm50.84 15.41v-14.41c-3.89 0-18.25-1.1-25.87-4.12v-11.77h-14.7v42.88h14.7v-16.23a96.976 96.976 0 0 0 25.869 3.65Zm18.63 11.39a17.851 17.851 0 0 1-2.62-9.28 18.035 18.035 0 0 1 2.62-9.26h-5.21a19.532 19.532 0 0 0 0 18.54h5.21Zm23.8-.95v-5.64a3.757 3.757 0 0 1-2.74 1h-1.06c-.32 0-.37-.1-.37-.33v-.9h3.91v-11.3h-8.22v5.11h3.77v1.08h-3.79v8.28c0 2.51 1 3.3 3.05 3.3h2.71a4.523 4.523 0 0 0 2.739-.6Zm-8.78-12.73v-4.44h-9.5v4.44h1.36v.4h-1.24v12.83h9.34v-12.83h-1.24v-.4h1.28Zm-4.35.46h-.73v-.52h.73v.52Zm1.46 3.96h-.32a.235.235 0 0 1-.19-.23v-.7h.51v.93Zm0 2.94h-3.66v-.31a1.6 1.6 0 0 0 1.59-1.69v-1.87h.49v2.29a1.07 1.07 0 0 0 .93 1.17h.65v.41Zm-3.09-3.35a.613.613 0 0 1-.57.73v-1.25h.57v.52Zm1.87 6h-1.06v-.56h1.06v.56Zm35.68-8.96v-4.78h-9.05c.02-.25.06-.52.08-.83h-5.55a5.929 5.929 0 0 1-.12.83h-3.66v4.78h1.93a4.324 4.324 0 0 1-1.93 1.94v6.44a9.659 9.659 0 0 0 1.12-.54v3.88h5.02v-5.88h.88v6.44h5.02v-6.44h1.06v.96a.216.216 0 0 1-.21.27h-.38v4.65h2.58a2.785 2.785 0 0 0 3.07-2.97v-7.42h-5.9v-.85h-5.24v.85h-.68c.29-.46.59-.94.78-1.33h11.18Zm22.83 5.17v-4.86c-.59 0-1.18 0-1.71-.04a16.089 16.089 0 0 0 1.06-2.01v-3.75h-7.26a2.516 2.516 0 0 1-2.16 1.09v1.12h-3.27l2.3-2.31h-5.11l-2.17 2.08v4.42h.89l-.89.9v4.03h1.87v.35h-1.89a32.411 32.411 0 0 1-.31 5.76h2.2v.31h4.21v-3.46l.43 3.15h2.56l-.04-.27 8.94.7v-4.21l-9.07-.69v3.4l-.77-4.69h-2.05v-.35h2.26l-.05-.67c.27 0 .53 0 .78-.02v2l8.58.63v-2.67a3.968 3.968 0 0 0 .669.06Zm-4.49-6.74a5.458 5.458 0 0 1-.96.84 2 2 0 0 1-.33-.32h-1.28a8.306 8.306 0 0 0 .69-.52h1.88Zm1.42 6.24-3.21-.25a7.568 7.568 0 0 0 1.13-.59 9.516 9.516 0 0 0 2.079.84Zm-5.72-4.3a12.7 12.7 0 0 1-1.52.02v2.5l-.3-2.62h-1.31l.08-.02 1.77-2.11v2a7.81 7.81 0 0 0 .98-.25q.149.23.299.48Zm-4.29 1.81h-.95l.87-.97Zm35.81-3.62v-4.11h-18.12v5.02h10.15a8.047 8.047 0 0 1-3.62 1.48v5.87a.284.284 0 0 1-.31.35h-2.97v5.15h4.66c3.03 0 4.31-1.19 4.31-4.36v-4.34a11.17 11.17 0 0 0 5.899-5.06Zm13.08 4.79a19.253 19.253 0 0 0-2.35-9.26h-5.23a18.035 18.035 0 0 1 2.62 9.26 17.851 17.851 0 0 1-2.62 9.28h5.23a19.443 19.443 0 0 0 2.349-9.28Z" transform="translate(-729.719 -9887.56)" style="fill:#e60012;fill-rule:evenodd"/></svg>