<svg xmlns="http://www.w3.org/2000/svg" width="672" height="58"><path data-name="シェイプ 4 のコピー 2" d="M1589 2459H975a29 29 0 0 0 0 58h614a29 29 0 0 0 0-58Zm-613.5 38.97a9.97 9.97 0 1 1 9.969-9.97 9.967 9.967 0 0 1-9.969 9.97Zm613 0a9.97 9.97 0 1 1 9.97-9.97 9.965 9.965 0 0 1-9.97 9.97Z" transform="translate(-946 -2459)" style="fill-rule:evenodd;fill:#0894fa"/><path d="M1245 2483.78v-9.02h-7.64v9.02h7.64Zm.26 9.95c0-7.16-4.54-9.37-11.94-9.37h-.32v-.83c1.35.03 2.6.06 3.52.12v-8H1233v-.99h-8.7v.99h-7.17v8.2h5.8a12.787 12.787 0 0 1 1.37-.13v.8c-5.98.77-8.99 4.41-8.99 9.85 0 6.27 3.14 9.28 9.22 9.28a8.365 8.365 0 0 0 7.29-3.81v3.81h.19c9.99 0 13.25-3.81 13.25-9.92Zm-9.38-.19c0 1.02-.86 1.79-2.88 1.92v-3.36c2.56.13 2.88.67 2.88 1.44Zm-10.11.42c0 1.15-.35 1.5-1.08 1.5a1.378 1.378 0 0 1-1.12-1.5c0-.87.54-1.44 1.79-1.44h.41v1.44Zm53.67-9.03v-8.64h-1.7v-1.47h-8.67v1.47h-7.87v8.64h7.87v1.99c-.35-.03-.67-.07-.93-.07-4.86 0-7.42 2.34-8.32 5.28 0-5.92.19-9.72.77-17.31h-8.9c-.6 7.81-.6 13.06-.6 17.06 0 3.2.41 9.15 1.05 11.42h8.9c-.35-1.5-.64-2.91-.83-4.32 1.08 2.62 3.45 4.54 7.8 4.54 5.83 0 8.83-1.82 9.57-5.15.61.19 1.25.35 1.79.55v-9.89c-.51-.16-1.05-.32-1.63-.51v-3.59h1.7Zm-9.83 10.05a1.462 1.462 0 0 1-1.6 1.25 1.5 1.5 0 0 1-1.63-1.25 1.454 1.454 0 0 1 1.63-1.18 1.415 1.415 0 0 1 1.6 1.18Zm44.42-11.68v-8.13h-10.47v8.13h10.47Zm.54 14.69v-9.15c-.45-.16-.99-.35-1.57-.51v-4.13h-9.44v2.69c-.28 0-.6-.04-.89-.04-4 0-6.53 1.44-7.94 3.52.23-1.92.45-3.84.64-5.72h6.91v-8.77h-5.98c.03-.42.07-.77.07-1.06h-8.93c0 .29-.03.64-.07 1.06h-2.4v8.77h1.51c-.67 6.46-1.51 13.88-1.79 16.86h8.83c.09-.8.19-1.89.35-3.11 1.25 3.43 4.77 5.03 9.6 5.03 5.57 0 8.7-2.21 9.41-6.08.64.22 1.24.45 1.69.64Zm-10.4-3.14a1.6 1.6 0 0 1-3.07 0 1.588 1.588 0 0 1 3.07 0Zm43.78-9.63h-9.35c0 6.59-2.2 8.38-4.6 8.38-2.5 0-4.07-.73-4.07-4.38v-14.4h-9.21v15.84c0 9.31 4 12.48 12.54 12.48 6.66 0 14.69-2.34 14.69-17.92Z" transform="translate(-946 -2459)" style="fill:#fff;fill-rule:evenodd"/></svg>