<svg xmlns="http://www.w3.org/2000/svg" width="367" height="58"><path data-name="シェイプ 4 のコピー 3" d="M1109.5 9419h-309a29 29 0 0 0 0 58h309a29 29 0 0 0 0-58ZM801 9457.97a9.97 9.97 0 1 1 9.969-9.97 9.967 9.967 0 0 1-9.969 9.97Zm308 0a9.97 9.97 0 1 1 9.97-9.97 9.965 9.965 0 0 1-9.97 9.97Z" transform="translate(-771.5 -9419)" style="fill-rule:evenodd;fill:#e60012"/><path d="M881.26 9456.24v-7.04h-6.1l-.36-3.31h6.456v-7.03h-7.1c-.024-.51-.072-1.01-.1-1.44h-7.441c.024.31.072.81.12 1.44h-6.793v7.03h7.489c.12 1.08.24 2.21.36 3.31h-7.849v7.04h8.689c.144 1 .288 1.87.384 2.54h7.489c-.12-.72-.264-1.56-.408-2.54h5.16Zm22.248-8.93v-5.81H892.2l-.1-1.23h-6.4l.072 1.23H884.5v6.34h1.656l.672 10.89h6.432l-.672-10.89h3.912v.21c0 .91-.865 1.97-2.617 2.16v6.99c6.961-1.28 9.625-5.98 9.625-9.89Zm14.255-1.18v-7.27c-2.064-.75-7.272-1.18-11.041-1.18v6.89a46.962 46.962 0 0 1 11.041 1.56Zm10.441-1.32v-6.6h-7.056v5.38c0 4.89-2.377 7.92-8.329 7.92h-6.1v7.03h7.369c10.252 0 14.112-5.76 14.112-13.73Zm26.28-4.94a2.969 2.969 0 0 0-3-2.98 2.929 2.929 0 0 0-2.88 2.98 2.894 2.894 0 0 0 2.88 2.88 2.936 2.936 0 0 0 3-2.88Zm.24 18.67-3.936-15.34a3.412 3.412 0 0 1-2.688-3.33 3.918 3.918 0 0 1 .144-1.06 9.1 9.1 0 0 0-5.185-1.27H939.6c-3.264 0-5.472 2.09-5.784 4.25l-1.681 12.05h7.465l1.176-7.97a1 1 0 0 1 1.032-.94h.576a1.309 1.309 0 0 1 1.44 1.23l3.025 12.38h7.872Zm-2.4-18.67a.839.839 0 0 1-.84.72.741.741 0 0 1-.72-.72.774.774 0 0 1 .72-.8.86.86 0 0 1 .84.8Zm26.5 11.69v-7.16H958.25v7.16h20.57Zm14.783-5.43v-7.27c-2.064-.75-7.272-1.18-11.041-1.18v6.89a46.962 46.962 0 0 1 11.034 1.56Zm10.437-1.32v-6.6h-7.052v5.38c0 4.89-2.377 7.92-8.329 7.92h-6.1v7.03h7.369c10.248 0 14.108-5.76 14.108-13.73Zm26.57 3.53v-4.03h-3.93v-.43h3.62v-2.19h-3.62v-.41h3.93v-3.89h-3.93v-.55h-6.58v.55h-3.6v3.89h3.6v.41h-3.07v2.19h3.07v.43h-3.34v.12l-.55-3.87h-.89v-3.65h-5.71v3.65h-1.46c0 4.73-.05 8.57-.2 11.52h1.66v7.18h5.71v-12.48l.48 3.65h.94v8.88h6.12v-1.39h1.22v1.39h6.17v-10.54h-12.84l-.07-.43h13.27Zm-6.26 4.13h-1.71v-.84h1.71v.84Zm0 3.14h-1.71v-.81h1.71v.81Zm32.64 3.7v-5.64c-.15-.03-.29-.05-.43-.07a11.2 11.2 0 0 0 .43-3.03v-4.58h-6.51v-4.32h1.64v.19a.2.2 0 0 1-.22.24h-1.01v3.48h3.34c1.94 0 2.76-.91 2.76-2.83v-5.69h-11.98v5.62h-2.09v-.39h1.68v-4.78h-1.68v-.57h-5.83v.57h-2.04v4.78h2.04v.39h-2.45v4.77h.67c.05.24.1.46.15.65h-.82v4.7h2.45v.41h-2.04v4.8h2.04v1.27h5.83v-1.27h1.68v-4.8h-1.68v-.41h2.09v6.51h4.66v-8.5a10.6 10.6 0 0 0 1.25 3 4.624 4.624 0 0 1-.87.17v5.28a7.272 7.272 0 0 0 3.63-1.37 7.49 7.49 0 0 0 3.306 1.42Zm-3.6-9a9.329 9.329 0 0 1-.27 1.15 3.077 3.077 0 0 1-.28-.74h-3.17v-.41h3.72Zm-8.38-2.21h-.89l.12-.65h.77v.65Zm-4.61-.79-.17.93h-.67c-.05-.26-.12-.6-.19-.93h1.03Z" transform="translate(-771.5 -9419)" style="fill:#fff;fill-rule:evenodd"/></svg>