<svg xmlns="http://www.w3.org/2000/svg" width="231" height="58"><path data-name="シェイプ 4 のコピー" d="M239.5 1409h202a29 29 0 0 1 0 58h-202v-58Zm201.5 38.97a9.97 9.97 0 1 1 9.969-9.97 9.967 9.967 0 0 1-9.969 9.97Z" transform="translate(-239.5 -1409)" style="fill-rule:evenodd;fill:#e60012"/><path d="M348.176 1452.13v-8.67a7.444 7.444 0 0 1-4.48-1.22h4.48v-8.57h-.676v-10.53h-4.736v-.89h-8.255v.89h-4.7v10.53h-.7v-11.33h-10.755v29.44h10.751v-9.54h5.312c-1.024.96-2.56 1.19-4.736 1.19v8.7a12.218 12.218 0 0 0 9.152-3.58 13.543 13.543 0 0 0 9.343 3.58Zm-6.4-18.46h-1.023v-3.04h1.023v3.04Zm-5.215 0h-.961v-3.04h.96v3.04Zm-12.415-.16h-.864v-2.94h.864v2.94Zm0 10.14h-.864v-3.01h.864v3.01Zm59.2 8.58v-8.19a6.838 6.838 0 0 1-1.76-1.57l1.76-.64v-14.5h-1.186l.64-1.15v-3.36h-9.087a3.472 3.472 0 0 0 .128-.67h-7.776a4.892 4.892 0 0 1-2.144 3.04c.1-.96.192-1.95.224-3.01h-8.287c-.064 3.81-.992 7.94-2.368 9.22v11.74a17.672 17.672 0 0 0 1.7-1.12v9.95h7.647v-18.04h-1.087a22.424 22.424 0 0 0 1.471-4.55v4.77a2.882 2.882 0 0 0 .672-.29v2.72h3.648c.032.07.064.13.1.19l-4.288.77v4.13l5.792-1.25a2.666 2.666 0 0 0 .128.48l-5.92 1.34v3.72l6.432-1.32c0 .16.032.36.032.55l-6.464 1.34v5.35l5.728-1.06a6.33 6.33 0 0 1-.608 1.15h9.087a9.053 9.053 0 0 0 .768-3.29 11.585 11.585 0 0 0 5.016 3.55Zm-8.575-25.63-.384.73h-2.432c.16-.22.288-.48.448-.73h2.368Zm2.015 5.89H375.7v-1.03h1.087v1.03Zm2.976 4.6-2.816 1.09c-.128-.38-.288-.73-.448-1.09h3.264Zm-8.191-4.6h-1.12v-1.03h1.12v1.03Z" transform="translate(-239.5 -1409)" style="fill:#fff;fill-rule:evenodd"/></svg>