<svg xmlns="http://www.w3.org/2000/svg" width="189.876" height="49.59"><path d="M323.65 1061.04h-14.592v47.93h17.084v-16.57l7.79 16.57h14.592v-47.93H331.4v16.61Zm58.685 17.68h-12.654v-4.98h14.552v-12.66H352.6v47.89h31.636v-12.57h-14.555v-5.07h12.654v-12.61Zm44.29 30.25h21.236l11.27-47.89h-17.953l-3.955 31.87-6.446-31.87h-16.253l-6.445 31.87-3.955-31.87h-17.953l11.27 47.89h21.236l3.994-19.38Zm55.2-30.81H498.6v-8.22q-2.255-9.735-19.1-9.73-9.1.045-14.038 3.01a10.579 10.579 0 0 0-5.418 9.76v5.98q0 5.85 7.791 9.09a62.814 62.814 0 0 0 7.118 2.33q4.943 1.425 6.881 2.22v4.47c0 .74-.726 1.1-2.175 1.1h-.159c-1.581 0-2.372-.36-2.372-1.1v-5.18h-16.771v8.18q2.292 9.735 19.139 9.73 9.1 0 14.039-2.97a10.58 10.58 0 0 0 5.417-9.76v-5.97q0-5.895-7.829-9.14a68.107 68.107 0 0 0-7.079-2.29q-4.983-1.425-6.92-2.18v-4.51c0-.57.791-.87 2.372-.87h.2c1.424 0 2.136.3 2.136.87v5.18Z" transform="translate(-309.062 -1060.22)" style="fill:#fff;fill-rule:evenodd"/></svg>