<svg xmlns="http://www.w3.org/2000/svg" width="635.378" height="153.06"><path d="M1039.57 2332.87h51.76v-25.39q-6.96-30.03-58.96-30.03-28.08.135-43.335 9.28-16.726 9.885-16.724 30.15v18.44q0 18.06 24.048 28.07a195.488 195.488 0 0 0 21.971 7.2q15.255 4.395 21.24 6.84v13.79q0 3.42-6.71 3.42h-.49q-7.32 0-7.32-3.42v-15.99h-51.762v25.27q7.077 30.03 59.082 30.03 28.08 0 43.33-9.16 16.725-9.885 16.73-30.15v-18.43q0-18.18-24.17-28.2a214.309 214.309 0 0 0-21.85-7.08q-15.39-4.4-21.36-6.71v-13.92q0-2.685 7.32-2.68h.61q6.585 0 6.59 2.68v15.99Zm59.69-13.79h33.57v108.89h52.86v-108.89h33.57v-39.06h-120v39.06Zm186.89-2.56q5.37 0 6.23.73.975.855.98 5.37v62.74q0 4.65-.98 5.38-.855.855-6.23.85c-3.66 0-5.78-.32-6.34-.98-.66-.49-.98-2.23-.98-5.25v-62.74c0-3.01.32-4.8.98-5.37.56-.49 2.68-.73 6.34-.73Zm59.94 6.1q0-22.83-14.53-33.81-14.64-11.355-45.41-11.36-30.885 0-45.53 11.36-14.52 10.98-14.52 33.81v62.74q0 22.83 14.52 33.82 14.655 11.355 45.53 11.35 30.765 0 45.41-11.35 14.535-10.995 14.53-33.82v-62.74Zm78.13 23.19c0 2.28-.33 3.63-.98 4.03s-2.77.61-6.35.61h-7.2v-31.25h7.2c3.5 0 5.57.12 6.23.37.73.41 1.1 1.46 1.1 3.17v23.07Zm-14.53 40.29q10.86.24 12.57 8.3l5.01 33.57H1480l-6.83-34.92q-3.3-18.3-16.73-24.78 17.22-6.465 17.7-29.41v-17.83q0-40.89-60.06-40.89h-57.13v147.83h52.74v-41.87Zm157.59-19.66 40.41-86.42h-55.42l-11.36 41.99-11.47-41.99h-55.42l40.41 86.42v61.53h52.85v-61.53Z" transform="translate(-972.312 -2277.47)" style="fill:#0894fa;fill-rule:evenodd"/></svg>