<svg xmlns="http://www.w3.org/2000/svg" width="572" height="96"><path d="M721.493 6797.6h-37.5v92.78h32.133v-38.73l12.577 38.73h20.322l12.5-38.73v38.73h32.132v-92.78h-37.424l-17.408 50.07Zm137.733 34.22h-24.54v-9.65h28.221v-24.49h-61.351v92.7h61.351v-24.34h-28.221v-9.8h24.54v-24.42Zm51.3-1.07h32.516v-15.92q-4.371-18.84-37.04-18.84-17.64.09-27.225 5.82-10.508 6.21-10.506 18.91v11.56q0 11.325 15.107 17.61a125.155 125.155 0 0 0 13.8 4.51q9.587 2.76 13.344 4.29v8.65q0 2.145-4.218 2.14h-.306q-4.6 0-4.6-2.14v-10.03h-32.509v15.85q4.448 18.825 37.118 18.83 17.637 0 27.224-5.74 10.506-6.195 10.506-18.91v-11.56q0-11.4-15.184-17.68a131.076 131.076 0 0 0-13.727-4.44q-9.663-2.76-13.421-4.21v-8.73q0-1.68 4.6-1.68h.383q4.141 0 4.141 1.68v10.03Zm80.14 0h32.519v-15.92q-4.38-18.84-37.044-18.84-17.639.09-27.224 5.82-10.507 6.21-10.506 18.91v11.56q0 11.325 15.107 17.61a125.155 125.155 0 0 0 13.8 4.51q9.586 2.76 13.344 4.29v8.65q0 2.145-4.218 2.14h-.307q-4.6 0-4.6-2.14v-10.03h-32.508v15.85q4.447 18.825 37.117 18.83 17.639 0 27.224-5.74 10.5-6.195 10.51-18.91v-11.56q0-11.4-15.19-17.68a130.57 130.57 0 0 0-13.724-4.44q-9.663-2.76-13.421-4.21v-8.73q0-1.68 4.6-1.68h.384q4.142 0 4.141 1.68v10.03Zm73.7 27.02 4.37-37.43 4.37 37.43h-8.74Zm12.5 32.61h33.51l-14.49-92.7h-54.3l-14.49 92.7h33.51l1-8.26h14.26Zm75.84-50.83v19.37h3.69v4.82c0 1.89-.21 2.99-.62 3.29-.36.36-1.66.54-3.91.54q-3.45 0-3.99-.54c-.41-.3-.61-1.4-.61-3.29v-39.42c0-1.89.2-2.99.61-3.29.36-.31 1.69-.46 3.99-.46 2.25 0 3.55.15 3.91.46.41.3.62 1.4.62 3.29v6.43h31.52v-17.23q-6.06-17.445-36.05-17.45-19.395 0-28.6 7.04-9.135 6.975-9.13 21.21v39.42q0 14.25 9.13 21.21 9.2 7.035 28.6 7.04 29.985 0 36.05-17.45v-34.99h-35.21Zm99.62-7.73h-24.54v-9.65h28.22v-24.49h-61.35v92.7h61.35v-24.34h-28.22v-9.8h24.54v-24.42Z" transform="translate(-684 -6796)" style="fill:#f2b700;fill-rule:evenodd"/></svg>