<svg xmlns="http://www.w3.org/2000/svg" width="689.561" height="153.06"><path d="m482.214 1362.14 23.072 147.83h86.425l23.072-147.83h-53.345L548.5 1473.83l-12.939-111.69h-53.347Zm137.207 0v147.83h52.735v-147.83h-52.735Zm132.569 102.78q0 4.53-.977 5.37c-.652.58-2.727.86-6.225.86h-7.325v-69.95h7.325q5.247 0 6.225.74.976.72.977 5.24v57.74Zm-67.261-102.78v147.83h60.059q30.76 0 45.41-11.11 14.524-10.98 14.526-33.94v-57.74q0-22.815-14.526-33.81-14.649-11.235-45.41-11.23h-60.059Zm222.656 54.44h-39.062v-15.38h44.922v-39.06h-97.657v147.83h97.657v-38.82h-44.922v-15.63h39.062v-38.94Zm74.829-18.06q5.37 0 6.226.73.975.855.976 5.37v62.75q0 4.635-.976 5.37-.855.855-6.226.85c-3.662 0-5.779-.32-6.347-.98q-.979-.72-.977-5.24v-62.75q0-4.515.977-5.37.852-.735 6.347-.73Zm59.936 6.1q0-22.83-14.53-33.81-14.64-11.355-45.406-11.35-30.885 0-45.532 11.35-14.528 10.98-14.526 33.81v62.75q0 22.815 14.526 33.81 14.649 11.355 45.532 11.35 30.759 0 45.406-11.35 14.535-11 14.53-33.81v-62.75Zm76.78 10.25h51.76v-25.39q-6.96-30.03-58.96-30.02-28.08.12-43.33 9.27-16.725 9.885-16.73 30.15v18.44q0 18.06 24.05 28.07a196.093 196.093 0 0 0 21.97 7.2q15.255 4.4 21.24 6.84v13.79q0 3.42-6.71 3.42h-.49q-7.32 0-7.32-3.42v-15.99h-51.76v25.27q7.08 30.03 59.08 30.03 28.08 0 43.34-9.15 16.71-9.9 16.72-30.16v-18.43q0-18.18-24.17-28.2a214.309 214.309 0 0 0-21.85-7.08q-15.375-4.4-21.36-6.71v-13.92q0-2.685 7.32-2.68h.61c4.4 0 6.59.89 6.59 2.68v15.99Z" transform="translate(-482.219 -1359.47)" style="fill:#e60012;fill-rule:evenodd"/></svg>