<svg xmlns="http://www.w3.org/2000/svg" width="593.501" height="44.78"><path d="M776.323 9596.4v-8.78h-8.359l.2-1.06h-13.625c-.147 1.06-.787 4.61-1.524 7.59v-6.53h-7.18l.1-1.06H731.87a71.367 71.367 0 0 1-2.164 11.09h9.786l.59-2.25h.885v3.12h-10.376v7.44h16.228v.86h-15.441v13.35h9c-1.721.96-4.573 1.25-9.786 1.25v9.84a41.334 41.334 0 0 0 15.49-2.59v2.59h14.261v-10.85h3.884v.91a.715.715 0 0 1-.836.58h-1.868v9.41h7.818c4.623 0 6.787-2.16 6.787-5.72v-13.53h-15.639v-.87h15.146v-12.67h-1.328v-2.12h2.016Zm-13.228 2.12H750.8v-3.12h1.918a10.935 10.935 0 0 1-.787 2.25h9.687l.492-2.25h.99v3.12Zm-.049 8.54h-2.557v-1.58h2.557v1.58Zm-16.227 5.19h-2.754v-1.44h2.754v1.44Zm76.8-10.66c0-9.7-5.8-13.97-15.342-13.97h-8.657c-9 0-15.391 5.76-15.391 14.64v2.11h14.653c-.049-2.16.2-4.03 2.9-4.03h4.081c1.131 0 2.311.39 2.311 1.73 0 2.45-6.933 3.98-8.851 4.56-12.884 3.75-14.752 11.14-14.752 23.19h38.552v-13.2h-14.455a34.381 34.381 0 0 0-4.967.72 16.127 16.127 0 0 1 3.492-1.25c8.261-2.16 16.424-4.51 16.424-14.5Zm53.638 27.27v-10.32h-7.474v-.87h6.933v-26.02h-.885l1.131-4.99h-8.753l-.983 4.99h-.246a43.182 43.182 0 0 0-.738-4.99h-7.474a25.765 25.765 0 0 1 1.033 4.99h-1.131a28.654 28.654 0 0 0-.836-4.99h-7.475a20.684 20.684 0 0 1 1.131 4.99h-.983v26.02h6.884v.87h-7.671v-9.36h-6.393v-.77h6.393v-21.18h-18.196v10.23h6.835v.82h-5.95v21.31h5.95v.39c0 .72-.394.91-1.279.91h-5.556v10.18h8.015c6.294 0 9.49-1.68 10.031-8.64v6.43h7.819v2.4h12.392v-2.4h7.474Zm-8.31-27.41h-1.967v-1.68h1.967v1.68Zm0 8.06h-1.967v-1.63h1.967v1.63Zm-8.753-8.06h-1.869v-1.68h1.869v1.68Zm0 8.06h-1.869v-1.63h1.869v1.63Zm87.563 21.8v-14.55c-10.966-3.31-15.047-12.53-15.047-29.86h-27.244v13.3h12.1c-2.262 9.5-7.818 15.17-15.784 16.56v14.55c10.523-1.11 18.538-6.92 23.7-15.46 4.423 7.2 11.455 13.01 22.273 15.46Zm52.895-28.04v-16.47h-28.223v16.47h28.221Zm1.14 9.31v-8.49h-30.2v-9.94h-1.622v-7.44h-12.49v7.44h-1.623v11.86h1.623v11.95c-.492 0-1.033.05-1.623.05v12.72c6.59-.33 11.064-1.53 15.1-3.84v1.63a15.635 15.635 0 0 0 2.852-1 16.276 16.276 0 0 1-1.623 3.79h7.868a29.587 29.587 0 0 0 1.721-7.73h.983a36.915 36.915 0 0 1-1.672 7.73h7.868c.443-1.15.836-5.04 1.033-8.93h2.113v.48c0 .33-.049.43-.393.43h-1.328v8.07h3.885c5.114 0 7.328-1.64 7.328-7.73v-10.13h-15.739c.1-.29.2-.58.3-.92h15.642Zm-13.773-19.25h-2.95v-1.53h2.95v1.53Zm0 4.71h-2.95v-1.54h2.95v1.54Zm-13.425 14.54a4.985 4.985 0 0 1-3 2.74v-2.21a7.665 7.665 0 0 1-1.623 1.35v-8.45h1.129v6.57h3.491Zm81.518-25.06h-13.23a21.413 21.413 0 0 1-1.72 5.04v-4.7h-6.54v-1.25h-14.21v1.25h-8.9v9.22h8.9v.86h-10.37v10.08h10.27a66.385 66.385 0 0 1-10.27 2.26v12.58c1.13-.19 2.16-.39 3.19-.63v9.03h40.72v-21.99h-11.51c.44-.43.94-.81 1.38-1.25h11.85v-10.08h-3.79a50.922 50.922 0 0 0 4.228-10.42Zm-17.9 9.56a5.93 5.93 0 0 1-1.03 1.15h-2.56v-1.15h3.59Zm1.72 20.54h-12.68v-1.1h12.68v1.1Zm0 5.38h-12.68v-1.1h12.68v1.1Zm71.93-30.48a6 6 0 0 0-6.14-5.96 5.926 5.926 0 0 0-5.91 5.96 5.859 5.859 0 0 0 5.91 5.76 5.941 5.941 0 0 0 6.138-5.76Zm-.93 13.1v-8.35a7 7 0 0 1-5.12 2.11 6.915 6.915 0 0 1-7.03-6.86 6.8 6.8 0 0 1 1.62-4.42h-33.43v14.11h28.66v1.97c0 7.92-3.49 11.62-17.99 11.62h-10.08v14.07h10.18c23.298 0 33.188-9.36 33.188-24.25Zm-3.49-13.1a1.672 1.672 0 0 1-1.72 1.44 1.493 1.493 0 0 1-1.43-1.44 1.556 1.556 0 0 1 1.43-1.59 1.711 1.711 0 0 1 1.718 1.59Zm57.42 5.66v-1.2h-14.41v1.2c0 11.33-5.16 17.38-12.24 17.38h-1.53v-27.99h-14.45v42.25h13.81c19.578 0 28.818-12.05 28.818-31.64Zm52.51-2.88v-8.02h-6.79v8.02h6.79Zm-7.87 0v-8.02h-6.84v8.02h6.84Zm7.67 5.09v-4.03h-15.64v-6.73h-10.82v-2.01h-14.45v2.01h-3.05v14.07h3.05v11.14c0 9.6 4.47 15.03 15.83 15.03h24.59v-13.97h-22.43c-2.8 0-3.54-1.59-3.54-3.12v-9.08h8.46l2.9-.38v.38c0 .87-.39 1.39-2.9 1.39h-3.69v9.94h5.17c13.618 0 16.518-6.29 16.518-14.64Zm33.82 4.66v-14.55c-4.23-1.49-14.9-2.35-22.62-2.35v13.78a98.484 98.484 0 0 1 22.618 3.12Zm21.39-2.64v-13.21h-14.46v10.76c0 9.79-4.86 15.84-17.06 15.84h-12.49v14.07h15.1c20.988 0 28.908-11.52 28.908-27.46Zm50.84 15.41v-14.41c-3.89 0-18.25-1.1-25.87-4.12v-11.77h-14.7v42.88h14.7v-16.23a96.976 96.976 0 0 0 25.868 3.65Z" transform="translate(-729.719 -9586.56)" style="fill:#e60012;fill-rule:evenodd"/></svg>