<svg xmlns="http://www.w3.org/2000/svg" width="153.062" height="507.94"><path d="M393.349 4458.1q0 5.37-.732 6.23-.734.975-5.249.98h-10.254v50.17h27.466q27.831-9.645 27.832-57.38 0-30.885-11.231-45.53-11.109-14.52-33.813-14.52H324.5q-22.7 0-33.813 14.52-11.232 14.655-11.23 45.53 0 47.73 27.832 57.38h27.465v-50.17H324.5q-4.516 0-5.249-.98-.855-.855-.854-6.23 0-5.49.854-6.34c.489-.66 2.238-.98 5.249-.98h62.867c3.009 0 4.76.32 5.249.98q.732.855.732 6.34Zm-59.326 122.08 59.692 6.95-59.692 6.96v-13.91Zm-52 19.89v53.35l147.827-23.07v-86.43l-147.827-23.07v53.34l13.184 1.59v22.71Zm95.093 126.22v51.76H402.5q30.03-6.96 30.03-58.96-.123-28.08-9.278-43.33-9.886-16.725-30.151-16.73h-18.429q-18.067 0-28.076 24.05a198.342 198.342 0 0 0-7.2 21.97q-4.395 15.255-6.836 21.24h-13.796q-3.418 0-3.418-6.71v-.49q0-7.32 3.418-7.32h15.991v-51.76h-25.268q-30.03 7.08-30.029 59.08 0 28.08 9.155 43.34 9.888 16.71 30.151 16.72H337.2q18.188 0 28.2-24.17a212.794 212.794 0 0 0 7.08-21.85q4.395-15.375 6.714-21.36h13.916q2.683 0 2.686 7.32v.61c0 4.4-.9 6.59-2.686 6.59h-15.996Zm13.794 59.7v33.56H282.021v52.86h108.887v33.57h39.062v-119.99h-39.062Z" transform="translate(-279.469 -4398.03)" style="fill:#009c42;fill-rule:evenodd"/></svg>