<svg xmlns="http://www.w3.org/2000/svg" width="728" height="45"><path data-name="シェイプ 4 のコピー 4" d="M1309.36 6929.01H626.639a22.491 22.491 0 1 0 0 44.98h682.721a22.491 22.491 0 1 0 0-44.98Zm-682.33 30.22a7.73 7.73 0 1 1 7.785-7.73 7.759 7.759 0 0 1-7.785 7.73Zm681.94 0a7.73 7.73 0 1 1 7.79-7.73 7.753 7.753 0 0 1-7.79 7.73Z" transform="translate(-604 -6929)" style="fill-rule:evenodd;fill:#f2b700"/><path data-name="プロデューサー 宮本茂からみなさまへ" d="M726.69 6941.4a2.6 2.6 0 1 0 0 .03v-.03Zm-4.08 0a1.435 1.435 0 1 1 0 .03v-.03Zm-18.48 1.83v3.95h14.425c-1.2 5.52-4.756 9.6-12.06 12.29l2.963 3.43c7.927-3.33 12.268-9.14 14.217-17.91l-3.275-1.76h-16.27Zm29.989.16v18.11h19.624v-18.11h-19.624Zm4.289 14.04v-10.07h10.943v10.07h-10.943Zm43.09-17.35a10.822 10.822 0 0 1 2.287 2.53l1.69-1.36a12.48 12.48 0 0 0-2.314-2.53Zm-1.768 2.87a12.492 12.492 0 0 1 2.236 2.55l1.689-1.36a12.968 12.968 0 0 0-2.261-2.56Zm-15.231-1.19v3.77h15.153v-3.77H764.5Zm10.657 9.99h8.265v-3.77h-21.833v3.77h9.279c-.182 3.95-1.247 6.01-6.394 8.03l3.223 3.32c5.904-2.94 7.226-6.42 7.46-11.35Zm34.019 6.22h-3.587l1.274-10.56h-12.528v3.54h8.213l-.884 7.02h-9.643v3.53h17.155v-3.53Zm9.794-8.49v4.33h21.417v-4.33h-21.417Zm27.339-4.7v3.82h4.292v5.76h4.159v-5.76h5.926v1.68c0 4.13-1.144 7.04-6.81 9.47l2.807 3.33c6.056-2.92 8.239-7 8.239-12.93v-1.55h4.263v-3.82h-4.263v-4.54h-4.236v4.54h-5.926v-4.49H850.6v4.49h-4.289Zm29.315 4.7v4.33h21.417v-4.33h-21.417Zm45.608-7.8v6.46h3.795v-3.15H940.6v3.15h3.924v-6.46h-9.674v-2.24h-4.106v2.24h-9.513Zm8.369 7.1h6.264v1.68H929.6v-1.68Zm8.4 14.27v.7h4.081v-9.21H934.2c.208-.42.39-.8.571-1.19h5.017v-7.46h-13.983v7.46h4.679c-.1.39-.208.77-.338 1.19h-6.472v9.21h3.926v-.7H938Zm-10.4-3.2v-2.09H938v2.09h-10.4Zm39.944-3.92v-4.9a33.507 33.507 0 0 0 3.743 4.9h-3.743Zm-7.823.23v3.38h3.768v4.18h4.055v-4.18h3.847v-3.51a29.282 29.282 0 0 0 3.847 3.51l2.963-3.33a25.3 25.3 0 0 1-8.708-8.56h8.344v-3.64h-10.294v-4.54h-4.055v4.54h-10.136v3.64h8.395a24.3 24.3 0 0 1-8.759 8.9l2.755 3.07a30.208 30.208 0 0 0 3.977-3.46Zm3.768-4.77v4.54h-3.561a30.923 30.923 0 0 0 3.56-4.54Zm37.322-3.85c-.03-.36-.08-.72-.11-1.11h3.85v-1.7h1.85l-1.56.85a10.4 10.4 0 0 1 1.4 1.96h-5.43Zm1.4 7.2a28.92 28.92 0 0 1-.91-3.74h3.22a18.846 18.846 0 0 1-2.311 3.74Zm2.96-3.74h4.68v-3.46h-1.95l1.74-.75a8.765 8.765 0 0 0-1.53-2.06h2.39v-3.46h-5.95v-1.86h-3.95v1.86H995.9v-1.86H992v1.86h-5.8v3.46h5.8v1.7h3.9v-1.7h4.705v.7l-3.925.05c.078.69.156 1.39.26 2.06h-8.162v4.47a15.656 15.656 0 0 1-2.755 9.7l3.3 1.99a20.729 20.729 0 0 0 3.119-11.67V6951h5.042a34.048 34.048 0 0 0 1.846 6.56 23.779 23.779 0 0 1-7.122 3.63l3.145 2.53a27.872 27.872 0 0 0 5.691-3.02 6.672 6.672 0 0 0 4.76 2.97c2.83.29 4.18-.72 4.78-5.26-1.07-.31-2.13-.6-3.2-.88-.15 2.09-.41 2.63-1.04 2.58a3.381 3.381 0 0 1-2.49-1.73 20.908 20.908 0 0 0 4.34-6.24Zm33.32-7.07-3.35 2.01a17.062 17.062 0 0 1 4.44 10.04l4.06-1.03a20.422 20.422 0 0 0-5.151-11.02Zm-18.87 2.79.75 3.74c1.43-.34 2.89-.65 4.27-.85a31.647 31.647 0 0 1-5.05 10.78l3.64 1.94a45.2 45.2 0 0 0 5.49-13.14h.65c1.95 0 2.57.49 2.57 2.89 0 3.51-.47 5.63-1.22 6.64a1.449 1.449 0 0 1-1.4.54 8.851 8.851 0 0 1-2.81-.49l-.24 3.74a17 17 0 0 0 3.93.44 4.238 4.238 0 0 0 4.11-2.27c.96-1.63 1.63-4.57 1.63-8.8 0-4.34-1.92-6.32-6.36-6.32.33-1.63.62-3.26.85-4.91l-4.1-.49a52.593 52.593 0 0 1-.78 5.65c-1.931.21-4.031.52-5.931.91Zm47.82-.26 1.04-3.77a89.17 89.17 0 0 0-12.32-2.63l-1.01 3.74a60.95 60.95 0 0 1 12.289 2.66Zm-7.82-.65-3.8-1.21c-1.97 2.94-2.55 5.6-2.55 11.54l3.28 1.44c2.7-2.66 5.17-3.97 7.54-3.97 2.34 0 3.22 1.08 3.22 2.4 0 1.91-1.82 3.22-6.68 3.22-.83 0-2.26-.05-3.3-.13l.83 3.82c.65.03 1.48.03 2 .03 8.01 0 11.34-2.58 11.34-7.05 0-3.35-2.55-5.65-6.61-5.65a14.511 14.511 0 0 0-7.4 2.27 10.427 10.427 0 0 1 2.129-6.71Zm29.13 7.2c-.26.73-.52 1.37-.78 1.94-.68 1.5-1.12 1.91-1.66 1.91-.42 0-.63-.41-.63-1.14-.001-1.34.679-2.34 3.069-2.71Zm2.57 6.87 2.58 3.2a12.022 12.022 0 0 0 7.12-8.29c.88.29 1.74.6 2.57.93l1.43-3.89c-1.07-.34-2.16-.67-3.28-.96.16-1.44.26-3.02.32-4.75l-4.11-.05c0 1.42-.03 2.71-.1 3.9-1.3-.26-2.6-.47-3.82-.59.77-2.46 1.53-4.86 2.18-6.59l-2.83-1.72a69.013 69.013 0 0 1-9.36.61l.34 3.85c2.28-.16 5.14-.44 6.78-.59-.31 1.34-.7 2.81-1.14 4.25-5.64.24-7.93 3.39-7.93 6.74 0 2.76 1.51 5.11 4.18 5.11 2.37 0 3.93-1.42 5.41-4.9.39-.93.81-2.02 1.2-3.18a32.961 32.961 0 0 1 4.44.75c-.781 2.81-2.441 4.8-5.981 6.17Zm45.98-13.52a47.613 47.613 0 0 0-6.94-3.57l-1.9 3.18a32.1 32.1 0 0 1 6.83 3.64Zm-22.04-2.64v3.69h3.37a36.539 36.539 0 0 1-4.47 9.47l3.77 2.12a46.379 46.379 0 0 0 4.92-11.59h4.02v-3.69h-3.06a30.67 30.67 0 0 0 .57-3.07l-4.21-.49a32.532 32.532 0 0 1-.55 3.56h-4.36Zm13.25 13.58v.28c0 1.45-.62 2.01-2.05 2.01-1.3 0-1.95-.56-1.95-1.31s.78-1.21 2.26-1.21a6.664 6.664 0 0 1 1.739.23Zm-.15-9.01c-.03.8-.03 1.83-.03 2.66 0 1.03.03 2.12.08 3.12a10.962 10.962 0 0 0-1.61-.1c-3.83 0-5.7 2.06-5.7 4.31 0 2.79 2.39 4.67 5.88 4.67 3.19 0 4.86-1.37 5.27-3.95a16.2 16.2 0 0 1 2.37 1.94l2.34-3.05a18.591 18.591 0 0 0-4.68-2.79c-.05-1.29-.1-2.76-.1-4.15 0-.83.05-1.83.13-2.66h-3.95Zm18.55.21c1.09.02 2.31.05 3.56.05 2.34 0 4.89-.08 7.38-.23a20.486 20.486 0 0 0 1.53 3.2 26.019 26.019 0 0 0-4.99-.44c-3.82 0-6.44 2.42-6.44 5.42 0 3.97 3.27 6.48 11.02 6.48 1.22 0 2.73-.06 4.21-.19l.23-3.76a44.084 44.084 0 0 1-4.49.28c-4.99 0-6.81-1.13-6.81-2.48 0-1.31.96-2.27 3.01-2.27a16.316 16.316 0 0 1 8.63 2.22l2.37-2.73a17.015 17.015 0 0 1-4.06-6.07 56.106 56.106 0 0 0 5.93-.93l-.83-3.66a43.1 43.1 0 0 1-6.22 1.03 27.542 27.542 0 0 1-.65-4.23l-4.34.38a34.278 34.278 0 0 0 .81 4.19c-1.87.1-3.72.15-5.43.15-1.67 0-3.12-.03-4.42-.1v3.69Zm39.22 8.69c0 1.84-.45 2.3-2.21 2.3-1.72 0-2.42-.49-2.42-1.21 0-.78.8-1.32 2.57-1.32a9.851 9.851 0 0 1 2.059.23Zm-7.36-8.85v3.59h7.25l.05 1.75c-.59-.05-1.19-.1-1.76-.1-4.32 0-6.53 2.12-6.53 4.72 0 2.4 2.21 4.65 6.45 4.65 4.03 0 5.61-1.42 5.98-4.26a21.3 21.3 0 0 1 4.7 3.38l2.68-3.15a28.517 28.517 0 0 0-7.36-4.15l-.08-2.84h6.71v-3.59h-6.81c-.03-.64-.03-1.26-.03-1.91h7.28v-3.58H1190c0-.96 0-1.84.02-2.61h-4.26c0 .75.03 1.63.03 2.61h-7.54v3.58h7.62l.05 1.91h-7.15Zm27.99 6.43 3.25 2.97c2.02-2.43 4.36-5.19 5.64-6.66a2.233 2.233 0 0 1 1.43-1.03c.44 0 .93.43 1.66 1.34a74.775 74.775 0 0 0 10.14 9.75l2.83-3.3a52.554 52.554 0 0 1-11.33-10.89c-1.15-1.52-2.29-2.19-3.36-2.19a3.68 3.68 0 0 0-2.72 1.6 91.241 91.241 0 0 1-7.541 8.41Z" transform="translate(-604 -6929)" style="fill:#fff;fill-rule:evenodd"/></svg>