<svg xmlns="http://www.w3.org/2000/svg" width="427.312" height="86.6"><path d="M451.968 10085.9v-25.7h-33.35v-18.2h30.988v-24.7h-30.988v-16.2h-28.437v59.1h-24.848v25.7h86.635Zm114.1 1.4v-24.9c-5.574 0-10.014-1.2-13.226-3.6h13.228v-24.7h-1.984v-30.3H550.1v-2.6h-24.371v2.6h-13.888v30.3h-2.078v-32.6h-31.744v84.8h31.744v-27.5h15.683c-3.024 2.8-7.559 3.5-13.983 3.5v25c10.959 0 20.218-3.4 27.02-10.3 7.275 6.8 17.195 10.3 27.587 10.3Zm-18.9-53.2h-3.023v-8.7h3.023v8.7Zm-15.4 0h-2.834v-8.7h2.834v8.7Zm-36.656-.4h-2.551v-8.5h2.551v8.5Zm0 29.2h-2.551v-8.7h2.551v8.7Zm184.3-18.1v-15.5h-15.489v-1.6h14.266v-8.4h-14.266v-1.6h15.494v-14.9h-15.494v-2.2h-25.887v2.2h-14.171v14.9h14.171v1.6h-12.093v8.4h12.093v1.6H624.9v.5l-2.173-14.9h-3.5v-14H596.75v14h-5.763c0 18.2-.189 33-.755 44.3h6.518v27.6h22.486v-48l1.889 14.1h3.685v34.1h24.09v-5.4h4.818v5.4H678v-40.5h-50.545l-.283-1.7h52.245Zm-24.658 15.9h-6.708v-3.2h6.708v3.2Zm0 12.1h-6.708v-3.2h6.708v3.2Zm137.91 14.2v-21.7l-1.7-.3a40.527 40.527 0 0 0 1.7-11.6v-17.6h-25.6v-16.6h6.424v.7a.74.74 0 0 1-.85.9h-3.968v13.4h13.13c7.653 0 10.865-3.5 10.865-10.9v-21.8h-47.14v21.6h-8.219v-1.5h6.613v-18.4h-6.613v-2.2h-22.958v2.2h-8.03v18.4h8.03v1.5h-9.636v18.3h2.645c.189.9.378 1.8.567 2.5h-3.212v18.1h9.636v1.6h-8.03v18.4h8.03v4.9h22.958v-4.9h6.613v-18.4h-6.613v-1.6h8.219v25h18.329v-32.7a41.915 41.915 0 0 0 4.912 11.6 30.259 30.259 0 0 1-3.4.6v20.3a29.171 29.171 0 0 0 14.266-5.3 29.2 29.2 0 0 0 13.037 5.5Zm-14.172-34.6a36.849 36.849 0 0 1-1.039 4.4 10.63 10.63 0 0 1-1.134-2.8h-12.47v-1.6H778.5Zm-32.972-8.5h-3.5l.472-2.5h3.023v2.5Zm-18.139-3-.661 3.6h-2.646c-.189-1.1-.472-2.3-.755-3.6h4.062Z" transform="translate(-365.344 -10000.7)" style="fill:#fff;fill-rule:evenodd"/></svg>