<svg xmlns="http://www.w3.org/2000/svg" width="58" height="268"><path data-name="シェイプ 4" d="M385 5215v-210a29 29 0 0 0-58 0v210a29 29 0 0 0 58 0Zm-38.969-209.5a9.969 9.969 0 1 1 9.969 9.97 9.967 9.967 0 0 1-9.969-9.97Zm0 209a9.969 9.969 0 1 1 9.969 9.97 9.967 9.967 0 0 1-9.969-9.97Z" transform="translate(-327 -4976)" style="fill-rule:evenodd;fill:#009c42"/><path d="M345.092 5076.3h9.375v-8.13l4.416-.48v8.61h9.375v-9.47c.672-.03 1.344-.1 1.92-.13v-9.92c-.416.03-1.088.1-1.92.16v-9.05h-9.375v9.98c-1.44.16-2.944.32-4.416.48v-10.46h-9.375v11.58c-1.344.19-2.5.38-3.392.51v9.98c.96-.16 2.08-.35 3.392-.54v6.88Zm11.9 29.66h7.743v-15.07l1.632-.12v-8.55l-1.632.1v-1.7h-8.447v2.21l-14.527.9v8.57l14.527-.89v5.21H356c-1.216 0-2.624-1.15-2.88-3.49h-9.311c1.699 9.28 7.97 12.83 13.191 12.83Zm-15.679 32.8h11.615l1.856-3.32a21.887 21.887 0 0 0 9.151 1.88h5.92v-26.78h-9.376v16.35c-5.311-.73-9.279-6.46-9.279-16.7h-9.535c.16 7.87 2.112 14.27 5.439 18.85Zm8.735 32.9h9.6c0-2.53.735-11.87 2.751-16.83h7.84v-9.57h-28.571v9.57h10.815a61.673 61.673 0 0 0-2.432 16.83Z" transform="translate(-327 -4976)" style="fill:#fff;fill-rule:evenodd"/></svg>