<svg xmlns="http://www.w3.org/2000/svg" width="1167.409" height="173.62"><path d="M445.455 9350.54c4.063 0 6.418.27 7.066.83q1.107.825 1.108 5.96v11.63h56.943v-31.17q-10.946-31.59-65.117-31.59-35.055 0-51.679 12.75-16.489 12.6-16.487 38.38v71.35q0 25.77 16.487 38.38 16.626 12.75 51.679 12.74 54.17 0 65.117-31.59v-31.17h-56.943v11.64c0 3.42-.37 5.4-1.108 5.96-.648.64-3 .97-7.066.97-4.157 0-6.56-.33-7.2-.97-.74-.56-1.108-2.54-1.108-5.96v-71.35q0-5.13 1.108-5.96c.645-.56 3.048-.83 7.2-.83ZM584 9417.87l7.9-67.75 7.9 67.75H584Zm22.584 59.02h60.546l-26.186-167.78h-98.09l-26.185 167.78h60.545l1.8-14.96h25.77Zm136.196-167.92h-67.75v167.92h58.052v-70.1l22.722 70.1h36.715l22.584-70.1v70.1h58.052v-167.92h-67.612l-31.451 90.61Zm212.673 44.34q6.094 0 7.2.41c.738.47 1.109 1.71 1.109 3.74v22.73c0 2.49-.371 4.01-1.109 4.57q-1.11.69-7.2.69h-8.175v-32.14h8.175Zm0 76.34q33.387 0 50.707-12.47 17.46-12.6 17.46-36.99v-24.8q0-46.425-68.167-46.42h-68.028v167.92h59.853v-47.24h8.175Zm141.457-11.78 7.9-67.75 7.9 67.75h-15.8Zm22.58 59.02h60.55l-26.19-167.78h-98.09l-26.18 167.78h60.54l1.8-14.96h25.77Zm68.45-167.78v167.78h59.85v-167.78h-59.85Zm142.7 75.79v35.05h6.65v8.73c0 3.42-.37 5.4-1.11 5.96-.64.64-3 .97-7.06.97-4.16 0-6.56-.33-7.21-.97-.74-.56-1.1-2.54-1.1-5.96v-71.35c0-3.42.36-5.41 1.1-5.96.65-.56 3.05-.83 7.21-.83 4.06 0 6.42.27 7.06.83q1.11.825 1.11 5.96v11.63h56.95v-31.17q-10.95-31.59-65.12-31.59-35.055 0-51.68 12.75-16.485 12.6-16.49 38.38v71.35q0 25.77 16.49 38.38 16.62 12.75 51.68 12.74 54.165 0 65.12-31.59v-63.31h-63.6Zm126.91-75.93h-51.12v167.92h59.85v-58.05l27.3 58.05h51.12v-167.92h-59.99v58.19Z" transform="translate(-377.281 -9306.19)" style="fill:#ebb201;fill-rule:evenodd"/></svg>