<svg xmlns="http://www.w3.org/2000/svg" width="67.79" height="67.82"><path d="M1574.77 1451.56a1.07 1.07 0 0 0 .14-.16c.05-.08.1-.17.15-.26.03-.05.06-.1.09-.16a1.93 1.93 0 0 0 .11-.34.326.326 0 0 0 .04-.13 2.157 2.157 0 0 0 .06-.51 2.074 2.074 0 0 0-.06-.5.5.5 0 0 0-.03-.13 3.594 3.594 0 0 0-.12-.35c-.02-.05-.06-.1-.08-.15a1.529 1.529 0 0 0-.17-.27c-.04-.06-.08-.1-.12-.15a2.291 2.291 0 0 0-.21-.23c-.02-.01-.03-.04-.06-.06l-16.94-14.52a2.418 2.418 0 0 0-3.15 3.67l11.98 10.27h-27.35a2.42 2.42 0 1 0 0 4.84h27.35l-11.98 10.27a2.424 2.424 0 0 0 1.57 4.26 2.432 2.432 0 0 0 1.58-.58l16.94-14.53a.339.339 0 0 0 .06-.06 1.373 1.373 0 0 0 .2-.22Zm-18.78 32.33a33.89 33.89 0 1 1 33.9-33.89 33.931 33.931 0 0 1-33.9 33.89Zm0-62.94a29.05 29.05 0 1 0 29.06 29.05 29.081 29.081 0 0 0-29.06-29.05Z" transform="translate(-1522.09 -1416.09)" style="fill:#fff;fill-rule:evenodd"/></svg>