<svg xmlns="http://www.w3.org/2000/svg" width="67.79" height="67.79"><path d="m1443.21 1448.45-.13.16a2.261 2.261 0 0 0-.16.26c-.03.06-.06.11-.09.17a3.19 3.19 0 0 0-.11.33c-.01.05-.03.09-.04.14a2.074 2.074 0 0 0-.06.5 2.1 2.1 0 0 0 .06.51c.01.04.03.08.04.12a2.533 2.533 0 0 0 .12.36 1 1 0 0 0 .08.14 2.543 2.543 0 0 0 .16.28 1.738 1.738 0 0 0 .13.15 2.089 2.089 0 0 0 .2.22l.06.06 16.95 14.53a2.422 2.422 0 0 0 3.15-3.68l-11.98-10.26h27.35a2.425 2.425 0 0 0 0-4.85h-27.35l11.98-10.26a2.421 2.421 0 0 0-1.58-4.26 2.387 2.387 0 0 0-1.57.58l-16.95 14.53-.06.06c-.07.07-.14.14-.2.21Zm18.78-32.33a33.9 33.9 0 1 1-33.89 33.89 33.931 33.931 0 0 1 33.89-33.89Zm0 62.94a29.05 29.05 0 1 0-29.05-29.05 29.081 29.081 0 0 0 29.05 29.05Z" transform="translate(-1428.09 -1416.12)" style="fill:#fff;fill-rule:evenodd"/></svg>