<svg xmlns="http://www.w3.org/2000/svg" width="23.38" height="23.37"><path d="m1615.83 1207.17-.02-.06a.6.6 0 0 0-.05-.16.544.544 0 0 1-.04-.08.988.988 0 0 0-.09-.15c-.02-.03-.04-.05-.06-.08l-.14-.14-5.63-4.83a1.248 1.248 0 0 0-1.75.14 1.248 1.248 0 0 0 .14 1.75l3.08 2.64h-7.9a1.24 1.24 0 1 0 0 2.48h7.9l-3.08 2.64a1.248 1.248 0 0 0-.14 1.75 1.266 1.266 0 0 0 .95.43 1.24 1.24 0 0 0 .8-.3l5.66-4.85a1.665 1.665 0 0 0 .12-.13l.05-.06c.03-.04.05-.09.09-.15l.04-.08c.02-.05.03-.1.05-.17l.02-.07a1.068 1.068 0 0 0 .03-.25 1.312 1.312 0 0 0-.03-.27Zm-6.83-11.42a11.69 11.69 0 1 0 11.68 11.69 11.7 11.7 0 0 0-11.68-11.69Zm0 20.9a9.21 9.21 0 1 1 9.2-9.21 9.218 9.218 0 0 1-9.2 9.21Z" transform="translate(-1597.31 -1195.75)" style="fill:#e41020;fill-rule:evenodd"/></svg>