<svg xmlns="http://www.w3.org/2000/svg" width="68.24" height="68.24"><path d="M1645.91 4712.58c.05-.06.1-.11.14-.16.06-.09.1-.18.15-.27a.827.827 0 0 0 .09-.16c.05-.11.08-.23.12-.34.01-.05.03-.09.04-.14a2.756 2.756 0 0 0 .05-.51 2.937 2.937 0 0 0-.05-.51c-.01-.04-.03-.08-.04-.12a2.533 2.533 0 0 0-.12-.36.638.638 0 0 0-.08-.14 1.307 1.307 0 0 0-.17-.28.609.609 0 0 0-.12-.15 2.291 2.291 0 0 0-.21-.23l-.06-.06-17.07-14.63a2.436 2.436 0 0 0-3.17 3.7l12.06 10.34h-27.54a2.44 2.44 0 0 0 0 4.88h27.55l-12.07 10.34a2.44 2.44 0 0 0 3.17 3.71l17.07-14.64a.339.339 0 0 0 .06-.06 1.936 1.936 0 0 0 .2-.21Zm-18.91 32.56a34.14 34.14 0 1 1 34.14-34.14 34.172 34.172 0 0 1-34.14 34.14Zm0-63.4a29.265 29.265 0 1 0 29.26 29.26 29.292 29.292 0 0 0-29.26-29.26Z" transform="translate(-1592.88 -4676.88)" style="fill:#fff;fill-rule:evenodd"/></svg>