<svg xmlns="http://www.w3.org/2000/svg" width="19.12" height="19.2"><path d="m1649.59 10372.8-.02-.1c-.01 0-.03-.1-.04-.1a.418.418 0 0 1-.04-.1c-.02 0-.05-.1-.07-.1s-.03 0-.05-.1c-.03 0-.06 0-.11-.1l-4.6-3.9a1 1 0 0 0-1.43.1.952.952 0 0 0-.24.7.83.83 0 0 0 .35.7l2.52 2.2h-6.46a1 1 0 1 0 0 2h6.46l-2.52 2.2a.991.991 0 0 0-.35.7.952.952 0 0 0 .24.7 1.143 1.143 0 0 0 .77.4.9.9 0 0 0 .66-.3l4.62-4c.03 0 .06 0 .1-.1h.04c.02 0 .05-.1.07-.1l.04-.1c.01 0 .03-.1.04-.1l.02-.1a1.01 1.01 0 0 0 0-.4Zm-5.59-9.4a9.6 9.6 0 1 0 9.55 9.6 9.588 9.588 0 0 0-9.55-9.6Zm0 17.1a7.5 7.5 0 1 1 7.53-7.5 7.477 7.477 0 0 1-7.53 7.5Z" transform="translate(-1634.44 -10363.4)" style="fill:#fff;fill-rule:evenodd"/></svg>