<svg xmlns="http://www.w3.org/2000/svg" width="41" height="41"><path d="M356.37 1175.95c.027-.04.055-.07.079-.1a1.039 1.039 0 0 0 .095-.16.582.582 0 0 0 .053-.1 1.175 1.175 0 0 0 .069-.2c.008-.03.019-.06.025-.08a1.48 1.48 0 0 0 .033-.31 1.555 1.555 0 0 0-.033-.31c0-.02-.016-.05-.023-.07a1.731 1.731 0 0 0-.071-.21c-.014-.03-.033-.06-.049-.09a1.169 1.169 0 0 0-.1-.17c-.023-.03-.05-.06-.075-.09a1.031 1.031 0 0 0-.125-.13.143.143 0 0 0-.035-.04l-10.254-8.79a1.463 1.463 0 0 0-1.907 2.22l7.248 6.22h-16.549a1.465 1.465 0 1 0 0 2.93H351.3l-7.249 6.21a1.463 1.463 0 1 0 1.907 2.22l10.254-8.79a.144.144 0 0 0 .036-.04c.045-.04.084-.08.122-.12Zm-11.364 19.56a20.51 20.51 0 1 1 20.508-20.51 20.532 20.532 0 0 1-20.508 20.51Zm0-38.09a17.58 17.58 0 1 0 17.579 17.58 17.6 17.6 0 0 0-17.579-17.58Z" transform="translate(-324.5 -1154.5)" style="fill:#e60012;fill-rule:evenodd"/></svg>