<svg xmlns="http://www.w3.org/2000/svg" width="23.38" height="23.38"><path d="m1633.83 1138.73-.02-.06a.749.749 0 0 0-.05-.16.544.544 0 0 1-.04-.08c-.03-.05-.06-.11-.09-.15a.276.276 0 0 1-.06-.08 1.784 1.784 0 0 1-.14-.14l-5.63-4.82a1.234 1.234 0 0 0-2.04 1.04 1.193 1.193 0 0 0 .43.84l3.08 2.64h-7.9a1.24 1.24 0 1 0 0 2.48h7.9l-3.08 2.64a1.248 1.248 0 0 0-.14 1.75 1.266 1.266 0 0 0 .95.43 1.188 1.188 0 0 0 .8-.3l5.66-4.85a.793.793 0 0 0 .12-.13l.05-.06a1.462 1.462 0 0 0 .09-.15l.04-.08c.02-.05.03-.1.05-.16l.02-.07a1.222 1.222 0 0 0 .03-.26 1.39 1.39 0 0 0-.03-.27Zm-6.83-11.41a11.685 11.685 0 1 0 11.68 11.68 11.7 11.7 0 0 0-11.68-11.68Zm0 20.89a9.21 9.21 0 1 1 9.2-9.21 9.218 9.218 0 0 1-9.2 9.21Z" transform="translate(-1615.31 -1127.31)" style="fill:#179bd4;fill-rule:evenodd"/></svg>