<svg xmlns="http://www.w3.org/2000/svg" width="67.062" height="21.25"><path data-name="長方形 758" d="M737.822 9553.48h45.844a10.615 10.615 0 1 1 0 21.23h-45.844a10.615 10.615 0 1 1 0-21.23Z" transform="translate(-727.219 -9553.47)" style="fill-rule:evenodd;fill:#fff"/><path d="M745.359 9558.43h-3.551v11.67h4.157v-4.03l1.9 4.03h3.55v-11.67h-4.166v4.05Zm15.461 4.31h-3.079v-1.22h3.541v-3.08h-7.7v11.66h7.7v-3.06h-3.541v-1.23h3.079v-3.07Zm11.171 7.36h5.167l2.742-11.66h-4.368l-.962 7.76-1.57-7.76h-3.954l-1.569 7.76-.962-7.76h-4.368l2.742 11.66h5.167l.972-4.72Z" transform="translate(-727.219 -9553.47)" style="fill:#e60012;fill-rule:evenodd"/></svg>