<svg xmlns="http://www.w3.org/2000/svg" width="333.844" height="116.72"><path d="M488.625 5243.73a4.5 4.5 0 0 1 1.117.07.667.667 0 0 1 .172.58v3.52a.943.943 0 0 1-.172.71 3.121 3.121 0 0 1-1.117.11h-1.267v-4.99h1.267Zm0 11.84q5.178 0 7.864-1.93a6.645 6.645 0 0 0 2.707-5.74v-3.84q0-7.2-10.571-7.2h-10.549v26.04h9.282v-7.33h1.267Zm27.855-9.11h-6.875v-2.71h7.906v-6.87h-17.187v26.02h17.187v-6.83h-7.906v-2.75h6.875v-6.86Zm12.129 7.28 1.224-10.5 1.225 10.5h-2.449Zm3.5 9.16h9.391l-4.06-26.02h-15.212l-4.061 26.02h9.389l.279-2.32h4Zm20.572-19.6a2.543 2.543 0 0 1 1.1.13 1.431 1.431 0 0 1 .172.93v1.8h8.83v-4.83q-1.7-4.9-10.1-4.9-5.436 0-8.013 1.97a7.034 7.034 0 0 0-2.557 5.96v11.06a7.014 7.014 0 0 0 2.557 5.95q2.577 1.98 8.013 1.98 8.4 0 10.1-4.9v-4.83h-8.83v1.8a1.374 1.374 0 0 1-.172.92 2.14 2.14 0 0 1-1.1.15 2.207 2.207 0 0 1-1.117-.15 1.368 1.368 0 0 1-.172-.92v-11.06a1.424 1.424 0 0 1 .172-.93 2.624 2.624 0 0 1 1.117-.13Zm20.529 3.16v-9.58h-9.28v26.02h9.281v-9.58h2.557v9.58h9.281v-26.02h-9.281v9.58h-2.557Zm-13.593-88.82a11.043 11.043 0 0 0-11.185-11.01 10.877 10.877 0 0 0-10.653 11.01 10.744 10.744 0 0 0 10.653 10.65 10.923 10.923 0 0 0 11.186-10.65Zm-1.775 68.97v-26.01H521.89c-12.606 0-16.246-3.28-16.246-11v-9.41h52.2v-13.68a12.741 12.741 0 0 1-21.838-8.87 11.184 11.184 0 0 1 .443-3.46h-30.8v-5.78h-26.193v45.37c0 20.59 9.588 32.84 31.781 32.84h46.606Zm-6.214-68.97c0 1.42-1.6 2.66-3.2 2.66a2.713 2.713 0 0 1-2.575-2.66 2.845 2.845 0 0 1 2.575-2.93 3.2 3.2 0 0 1 3.201 2.93Zm88.154 43.23v-26.45h-76.077v26.45h76.078Zm84.693-2.4v-23.34h-10.031v-3.29a68.208 68.208 0 0 0 10.032-1.24v-23.26c-4.883 1.33-24.058 2.22-40.392 2.22h-39.948v22.9h40.126c1.42 0 2.84-.09 4.261-.09v2.76h-44.387v23.34h32.669l9.587-1.06c-2.219 3.37-6.214 4.44-12.428 4.44h-28.851v24.85h28.674c20.772 0 36.13-7.63 39.77-28.23h10.919Zm87.444 30.45v-21.48h-4.438v-2.4h3.107v-34.62h-3.107v-2.66h4.438v-20.33h-44.563v81.49h44.564Zm-45.984-.71v-24.77l-2.841-2.22c2.4-7.63 2.841-15.53 2.841-22.19v-28.23h-10.474v-4.08h-22.637c0 1.42-.089 2.84-.089 4.08H729.1v22.91h3.285c-.444 12.69-1.42 18.02-3.107 25.56l4.439 3.55a34.8 34.8 0 0 1-4.617 1.07v26.27c10.209-2.66 17.577-6.65 22.9-11.45Zm25.212-57.61h-3.2v-3.11h3.2v3.11Zm5.06 18.46h-8.256v-2.93h8.256v2.93Zm-5.06 18.56h-3.2v-2.84h3.2v2.84Zm-40.481-31.34a37.293 37.293 0 0 1-2.219 13.76l-1.243-.98a134.872 134.872 0 0 0 1.332-15.35h2.13v2.57Z" transform="translate(-478.062 -5146.62)" style="fill:#fff;fill-rule:evenodd"/></svg>