<svg xmlns="http://www.w3.org/2000/svg" width="244.562" height="115.88"><path d="M489.973 4492.44h-10.506v26.04h9v-10.88l3.523 10.88h5.694l3.5-10.88v10.88h9v-26.04h-10.479l-4.877 14.05Zm31.786 16.88 1.225-10.5 1.225 10.5h-2.45Zm3.5 9.16h9.389l-4.06-26.02h-15.209l-4.061 26.02h9.389l.279-2.33h4Zm22.012-14.46a.916.916 0 0 1-.172.71 3.236 3.236 0 0 1-1.117.1h-1.268v-5.5h1.268a4.362 4.362 0 0 1 1.095.07.594.594 0 0 1 .194.56v4.06Zm-2.557 7.09c1.275.02 2.012.51 2.213 1.46l.881 5.91h9.281l-1.2-6.15a5.541 5.541 0 0 0-2.944-4.36q3.03-1.14 3.116-5.18v-3.14q0-7.185-10.571-7.19h-10.055v26.02h9.281v-7.37Zm13.181-18.65v26.02h9.281v-26.02H557.9Zm21.453 6.4a2.377 2.377 0 0 1 1.1.13 1.482 1.482 0 0 1 .172.94v11.05a1.421 1.421 0 0 1-.172.94 2.135 2.135 0 0 1-1.1.15 1.922 1.922 0 0 1-1.118-.17 1.376 1.376 0 0 1-.171-.92v-11.05a1.491 1.491 0 0 1 .171-.94 2.465 2.465 0 0 1 1.118-.13Zm10.548 1.07c0-2.67-.852-4.66-2.556-5.95q-2.578-1.995-7.992-2-5.436 0-8.014 2c-1.705 1.29-2.557 3.28-2.557 5.95v11.05q0 4.02 2.557 5.95 2.578 1.995 8.014 2 5.413 0 7.992-2 2.556-1.935 2.556-5.95v-11.05Zm-31.558-70.49v-25.39h-79.627v26.1h51.311v1.06c0 5.51-4 11.99-12.34 14.56l-4.349-8.88H483.86l21.306 45.28h30.271l-5.948-12.25c17.222-6.57 28.851-22.55 28.851-40.48Zm80.609 10.03v-36.4h-26.1v31.96c0 15-12.073 20.24-27.7 20.24H572.9v26.01h15.98c26.456 0 50.069-11.9 50.069-41.81Zm-50.245 11.1v-47.5h-26.1v47.5h26.1Zm134.583-15.81v-26.1h-6.924v-5.5h-26.1v5.5h-46.692v26.1h16.6c-1.154 7.55-8.255 16.07-16.6 19.89v28.14c24.412-7.63 40.924-31.69 43.765-48.03h2.929v47.41h26.1v-47.41h6.924Z" transform="translate(-478.719 -4403.06)" style="fill:#fff;fill-rule:evenodd"/></svg>