<svg xmlns="http://www.w3.org/2000/svg" width="329.62" height="118.72"><path d="m1560.24 5623.75 4.74-12.89H1556l-3.15 8.94v-8.94h-9.29v26.04h9.29v-8.92l3.71 8.92h9.93Zm6.69-12.87v26.02h9.28v-26.02h-9.28Zm18.98-.02h-7.93v26.04h9.29v-9l4.23 9h7.93v-26.04h-9.31v9.02Zm25.69 6.42a2.349 2.349 0 0 1 1.09.13 1.489 1.489 0 0 1 .17.95v11.04a1.394 1.394 0 0 1-.17.94 2.11 2.11 0 0 1-1.09.15 1.917 1.917 0 0 1-1.12-.17 1.341 1.341 0 0 1-.17-.92v-11.04a1.489 1.489 0 0 1 .17-.95 2.458 2.458 0 0 1 1.12-.13Zm10.55 1.08c0-2.68-.86-4.67-2.56-5.96q-2.58-1.995-7.99-1.99-5.445 0-8.02 1.99-2.55 1.935-2.55 5.96v11.04q0 4.02 2.55 5.95 2.58 1.995 8.02 2 5.415 0 7.99-2c1.7-1.29 2.56-3.27 2.56-5.95v-11.04Zm12.02-.63a4.406 4.406 0 0 1 1.11.07.65.65 0 0 1 .18.58v3.52a.915.915 0 0 1-.18.71 3.054 3.054 0 0 1-1.11.11h-1.27v-4.99h1.27Zm0 11.84q5.175 0 7.86-1.93a6.657 6.657 0 0 0 2.71-5.74v-3.84q0-7.2-10.57-7.2h-10.55v26.04h9.28v-7.33h1.27Zm11.69-18.69v26.02h9.29v-26.02h-9.29Zm21.46 6.4a2.349 2.349 0 0 1 1.09.13 1.467 1.467 0 0 1 .18.95v11.04a1.373 1.373 0 0 1-.18.94 2.11 2.11 0 0 1-1.09.15 1.917 1.917 0 0 1-1.12-.17 1.4 1.4 0 0 1-.17-.92v-11.04a1.563 1.563 0 0 1 .17-.95 2.458 2.458 0 0 1 1.12-.13Zm10.55 1.08c0-2.68-.86-4.67-2.56-5.96q-2.58-1.995-7.99-1.99-5.445 0-8.02 1.99-2.55 1.935-2.55 5.96v11.04q0 4.02 2.55 5.95 2.58 1.995 8.02 2 5.415 0 7.99-2c1.7-1.29 2.56-3.27 2.56-5.95v-11.04Zm-248.86-28.18v-26.01h-22.55q-.66-6.12-1.33-12.25h23.88v-26.01h-26.28c-.09-1.87-.27-3.73-.35-5.33h-27.52c.08 1.16.26 3.02.44 5.33h-25.12v26.01h27.69c.45 3.99.89 8.17 1.34 12.25h-29.03v26.01h32.13c.54 3.73 1.07 6.92 1.42 9.41h27.7c-.44-2.66-.98-5.77-1.51-9.41h19.09Zm81.32-69.78h-26.99c-.8 23.26-15.36 50.52-49 53v26.81c50.42-2.84 75.99-39.77 75.99-79.81Zm84.87 9.24a11.044 11.044 0 0 0-11.19-11.01 10.875 10.875 0 0 0-10.65 11.01 10.743 10.743 0 0 0 10.65 10.65 10.924 10.924 0 0 0 11.19-10.65Zm-1.78 68.97v-26.01h-35.95c-12.61 0-16.25-3.28-16.25-11v-9.41h52.2v-13.68a12.743 12.743 0 0 1-21.84-8.87 11.039 11.039 0 0 1 .45-3.46h-30.81v-5.78h-26.19v45.37c0 20.59 9.59 32.84 31.79 32.84h46.6Zm-6.21-68.97c0 1.42-1.6 2.66-3.2 2.66a2.71 2.71 0 0 1-2.57-2.66 2.842 2.842 0 0 1 2.57-2.93 3.2 3.2 0 0 1 3.2 2.93Zm92.59 22.55v-26.1h-6.92v-5.51h-26.1v5.51h-46.7v26.1h16.6c-1.15 7.54-8.25 16.06-16.6 19.88v28.14c24.42-7.63 40.93-31.69 43.77-48.02h2.93v47.4h26.1v-47.4h6.92Z" transform="translate(-1350.19 -5518.62)" style="fill:#fff;fill-rule:evenodd"/></svg>