<svg xmlns="http://www.w3.org/2000/svg" width="332.18" height="114.38"><path d="M1594.13 4862.7v26.04h17.19v-6.85h-7.9v-19.19h-9.29Zm18.21 0v18.54q0 4.02 2.56 5.95c1.72 1.34 4.39 2 8.01 2s6.28-.66 8-2q2.55-1.935 2.55-5.95v-18.54h-9.28v18.54a1.5 1.5 0 0 1-.17.95 2.16 2.16 0 0 1-1.1.15 1.989 1.989 0 0 1-1.11-.17 1.375 1.375 0 0 1-.18-.93v-18.54h-9.28Zm22.62.02v26.02h9.28v-26.02h-9.28Zm21.68 11.76v5.43h1.04v1.35a1.375 1.375 0 0 1-.18.93 2.11 2.11 0 0 1-1.09.15 2.206 2.206 0 0 1-1.12-.15 1.463 1.463 0 0 1-.17-.93v-11.06a1.4 1.4 0 0 1 .17-.92 2.458 2.458 0 0 1 1.12-.13 2.349 2.349 0 0 1 1.09.13 1.321 1.321 0 0 1 .18.92v1.8h8.83v-4.83q-1.71-4.905-10.1-4.9-5.445 0-8.02 1.98a7.024 7.024 0 0 0-2.55 5.95v11.06a7.044 7.044 0 0 0 2.55 5.96q2.58 1.965 8.02 1.97 8.4 0 10.1-4.9v-9.81h-9.87Zm11.32-11.76v26.02h9.28v-26.02h-9.28Zm-237.1-45.75v-25.39h-24.68v21.66c0 13.67-1.86 15.54-4.53 15.54h-.71l1.07-7.28v-46.07h-23.7v78.03h22.28c20.59 0 30.27-11.63 30.27-36.49Zm-55.57-7.28v-34.26h-23.7v34.97c0 18.11-1.42 40.66-1.69 43.06h23.97c.18-2.22 1.42-27.52 1.42-43.77Zm143.37-34.26h-30.36c-1.69 9.58-14.91 20.33-31.96 24.05l-18.28 4v27.96l27.25-6.57c2.31-.53 4.53-1.24 6.75-1.86v30.8h27.16v-45.45c10.56-8.97 17.49-20.51 19.44-32.93Zm79.81 52.28v-26.45h-76.08v26.45h76.08Zm83.63-38.08v-14.83h-12.25v14.83h12.25Zm-14.21 0v-14.83h-12.33v14.83h12.33Zm-24.32 9.5v-22.73h-40.92v22.73h40.92Zm38.26-.45v-7.1h-26.1v2.13c0 24.24-6.12 33.83-31.42 33.83h-21.66v26.01h24.68c43.49 0 54.5-29.03 54.5-54.87Zm-38.26 25.3v-22.37h-40.92v22.37h40.92Z" transform="translate(-1349.91 -4774.81)" style="fill:#fff;fill-rule:evenodd"/></svg>