<svg xmlns="http://www.w3.org/2000/svg" width="430.688" height="107"><path d="M364.875 825.771a58.4 58.4 0 0 0 9.839-8q6.042-6.206 6.043-10.942v-5.185q0-6.736-5.267-10.085-4.859-3.062-13.759-3.062-15.923 0-18.577 9.391v9.105H359.4v-5.349q0-1.143 2.327-1.143 2.286 0 2.286 1.143v4.856q0 3.837-9.064 11.717-2.571 2.573-7.145 6.9-4.164 3.879-5.144 4.9v8.783h38.093v-13.029h-15.878Zm36.545-22.211a2.11 2.11 0 0 1 .735-1.715 2.276 2.276 0 0 1 1.551-.571 2.332 2.332 0 0 1 1.592.571 2.11 2.11 0 0 1 .735 1.715v21.027a2.11 2.11 0 0 1-.735 1.715 2.242 2.242 0 0 1-1.592.612 2.19 2.19 0 0 1-1.551-.612 2.11 2.11 0 0 1-.735-1.715V803.56Zm21.353 1.919q0-7.88-4.614-12.249-4.9-4.736-14.453-4.736-9.513 0-14.412 4.736-4.615 4.37-4.614 12.249v17.27q0 7.881 4.614 12.249 4.9 4.654 14.412 4.654 9.553 0 14.453-4.654 4.614-4.368 4.614-12.249v-17.27Zm26.416 20.292a58.4 58.4 0 0 0 9.84-8q6.042-6.206 6.042-10.942v-5.185q0-6.736-5.266-10.085-4.86-3.062-13.76-3.062-15.923 0-18.577 9.391v9.105h16.25v-5.349q0-1.143 2.327-1.143 2.286 0 2.287 1.143v4.856q0 3.837-9.064 11.717-2.572 2.573-7.145 6.9-4.166 3.879-5.145 4.9v8.783h38.093v-13.029h-15.882Zm42.666-23.971a2.969 2.969 0 0 1 .286 1.756v3.021a1.7 1.7 0 0 1-.327 1.348 5.161 5.161 0 0 1-2 .2h-3.267v11.922h3.267a5.161 5.161 0 0 1 2 .2 1.548 1.548 0 0 1 .327 1.306v3.022a2.963 2.963 0 0 1-.286 1.755 3.94 3.94 0 0 1-2 .286 4.062 4.062 0 0 1-2.041-.286 2.954 2.954 0 0 1-.286-1.755v-3.43h-15.8v9.513q3.186 8.984 18.128 8.982 9.757 0 14.413-3.756 4.613-3.714 4.613-11.309v-.694q0-7.635-6.491-9.8 6.492-2.165 6.491-9.84v-.681q0-7.594-4.613-11.309-4.655-3.756-14.413-3.757-14.943 0-18.128 9.023v9.473h15.8v-3.43a2.961 2.961 0 0 1 .286-1.756 4.68 4.68 0 0 1 2.041-.245 4.366 4.366 0 0 1 2 .245Zm30.5 22.824a7.525 7.525 0 1 0 5.308 2.2 7.234 7.234 0 0 0-5.308-2.2Zm29.885-35.276-15.964 35.112v7.8h19.638v6.54h16.74v-6.532h5.389v-13.03h-5.389v-29.886h-20.415Zm.2 29.886 3.47-11.432v11.432h-3.47Zm39.56 5.394a7.527 7.527 0 1 0 5.308 2.2 7.234 7.234 0 0 0-5.308-2.2Zm36.5 1.143a58.365 58.365 0 0 0 9.84-8q6.042-6.206 6.043-10.942v-5.185q0-6.736-5.267-10.085-4.86-3.062-13.759-3.062-15.924 0-18.577 9.391v9.105h16.249v-5.349q0-1.143 2.328-1.143 2.286 0 2.286 1.143v4.856q0 3.837-9.064 11.717-2.573 2.573-7.145 6.9-4.164 3.879-5.144 4.9v8.783h38.093v-13.029H628.5Zm44.381-19.19a1.7 1.7 0 0 1-.327 1.348 5.157 5.157 0 0 1-2 .2 4.984 4.984 0 0 1-1.96-.2 1.7 1.7 0 0 1-.327-1.348v-3.021a2.961 2.961 0 0 1 .286-1.756 4.366 4.366 0 0 1 2-.245 4.513 4.513 0 0 1 2.041.245 2.969 2.969 0 0 1 .286 1.756v3.021Zm16.74-3.021q0-7.594-4.614-11.309-4.654-3.756-14.453-3.757-9.759 0-14.413 3.757-4.614 3.716-4.613 11.309v.694q0 7.677 6.491 9.84-6.49 2.164-6.491 9.8v.694q0 7.593 4.613 11.309 4.654 3.757 14.413 3.756 9.8 0 14.453-3.756 4.614-3.714 4.614-11.309v-.694q0-7.635-6.533-9.8 6.533-2.165 6.533-9.84v-.694Zm-16.74 21.027a2.963 2.963 0 0 1-.286 1.755 4.065 4.065 0 0 1-2.041.286 3.8 3.8 0 0 1-2-.286 2.954 2.954 0 0 1-.286-1.755v-3.022a1.7 1.7 0 0 1 .327-1.347 6.4 6.4 0 0 1 2-.163 4.985 4.985 0 0 1 1.959.2 1.548 1.548 0 0 1 .327 1.306v3.022Zm44.763 13.563v-8.44h-4.692V814h4.692v-8.44h-13.9v32.59h13.9Zm37.256-.45v-7.131H753l.811-2.342h-8.433l-.776 2.342h-.812v-3h10.48v-6.649h-10.48v-.758h7.41V818a17.005 17.005 0 0 0 3.705.689v-9.715c-3.564 0-7.8-1.206-9.315-3.135h-14.12c-1.341 1.688-6.316 3.135-9.351 3.135v9.68a23.214 23.214 0 0 0 3.74-.758v2.274h7.481v.758h-10.551v6.649h10.551v3h-.882a12.946 12.946 0 0 0-.988-2.342H723a10.984 10.984 0 0 1 1.27 2.342h-2.152v7.123H754.9Zm-13.091-23.77h-6.951a36.542 36.542 0 0 0 3.529-2.343 34.849 34.849 0 0 0 3.421 2.345Zm31.529 24.218V805.56h-13.833V814h4.658v15.778h-4.658v8.371h13.832Zm-270.6 51.181v-31.673h-8.69V884a.235.235 0 0 1-.248.242h-.579v-26.1h-5.173v28.6a7.121 7.121 0 0 1-1.821-.727l1.076-.566v-11.11h-.827v-3.03a5.036 5.036 0 0 1-3.1.808h-3.641a.3.3 0 0 1-.29-.364v-.565h.993v-2.384h-.993v-.724h1.7v3.111h6.155v-9.252h-6.083v-.728h5.5v-2.868h-5.5v-.687h-10.672v2.788h-5.338v15.8c0 2.1-.248 2.626-.786 2.787v16.239a12.1 12.1 0 0 0 5.214-4.687l4.593-1.575c0 .2-.042.444-.042.727l-5.007 1.7v3.8l4.221-1.415a5.362 5.362 0 0 1-.62 1.455h9.89a11.169 11.169 0 0 0 .5-2.5 13.179 13.179 0 0 0 5.09 2.667v-6.3h1.655v6.141h7.283c3.431-.013 5.541-2.276 5.541-5.952ZM474.1 868.807h-1.283V867.6h1.283v1.212Zm12.29 12.242-2.81 1.251a5.581 5.581 0 0 1-.124-1.252h2.938Zm-11.79-6.707h-1.531v-1.818h1.031v.04a3.254 3.254 0 0 0 .5 1.778Zm-1.034 7.111-1.283.363c0-.363.041-.727.041-1.131h1.076c.042.242.124.525.166.768Zm.579 3.838-2.607.767c.041-.2.124-.444.166-.646l2.358-.808c.038.242.038.485.083.687Zm77.525-13.616v-13.857h-23.752v13.857h23.752Zm.952 7.838v-7.151h-25.408V864h-1.365v-6.262h-10.511V864h-1.366v9.979h1.366v10.06c-.414 0-.869.041-1.366.041v10.706c5.545-.283 9.311-1.293 12.7-3.232v1.374a12.988 12.988 0 0 0 2.4-.849 13.572 13.572 0 0 1-1.365 3.192h6.621a24.859 24.859 0 0 0 1.448-6.5h.828a31.133 31.133 0 0 1-1.407 6.5h6.621a38.708 38.708 0 0 0 .869-7.515h1.779v.4c0 .283-.041.364-.331.364h-1.117v6.787h3.269c4.3 0 6.166-1.373 6.166-6.5v-8.525h-13.238c.082-.242.165-.485.248-.768h13.159Zm-11.587-16.2h-2.482v-1.293h2.482v1.293Zm0 3.96h-2.482v-1.293h2.482v1.293Zm-11.3 12.241a4.222 4.222 0 0 1-2.525 2.3v-1.858a6.25 6.25 0 0 1-1.365 1.131v-7.111h.955v5.535h2.939Zm72.642-.485v-13.616c-3.311-.242-6.456-5.454-6.456-7.676h-12.079c1.076 6.222 5.214 14.06 11.752 18.383h-10.345l1.821 7.272a23.115 23.115 0 0 1-6.249.808h-.455l2.856-13.494h-7.035a28.448 28.448 0 0 0 5.876-12.969h-12.29c0 1.858-2.938 7.434-6.166 7.676v13.615a18.488 18.488 0 0 0 5.669-2.181l-1.531 7.353H564.6v10.908h16.552a25.952 25.952 0 0 0 8.525-1.252l.372 1.656h12.29l-4.839-18.261a18.5 18.5 0 0 0 4.881 1.777Zm48.145 16.323v-37.13h-18.245v18.5h8.523v18.625h9.725Zm-18.994-18.625v-18.5h-18.245v37.129h9.724v-18.63h8.525Zm8.566 15.393v-6.747h-1.2v-1.253h1.2v-6.585h-16.383v6.585h1.283v1.253h-1.283v6.747h.828a7.632 7.632 0 0 1-1.283 2.787h7.244a9.039 9.039 0 0 0 .787-2.787h.869v2.787h6.993v-2.787h.951Zm1.531-26.5h-1.9v-1.656h1.9v1.656Zm0 5.737h-1.9v-1.7h1.9v1.7Zm-17.546-5.737h-1.9v-1.656h1.9v1.656Zm0 5.737h-1.9v-1.7h1.9v1.7Zm8.525 14.262h-1.655v-1.5h1.655v1.5Z" transform="translate(-342.656 -788.5)" style="fill:#fff;fill-rule:evenodd"/></svg>