<svg xmlns="http://www.w3.org/2000/svg" width="553.03" height="117.38"><path d="M1458.81 6371.31a1.467 1.467 0 0 1-.18.95 2.192 2.192 0 0 1-1.09.15h-1.29v-12.31h1.29a2.44 2.44 0 0 1 1.09.13 1.321 1.321 0 0 1 .18.92v10.16Zm-11.84-18.09v26.02h10.57q5.415 0 7.99-1.95c1.7-1.29 2.56-3.28 2.56-5.98v-10.16c0-2.68-.86-4.66-2.56-5.95q-2.58-1.98-7.99-1.98h-10.57Zm32.99 6.41a2.582 2.582 0 0 1 1.09.12 1.467 1.467 0 0 1 .18.95v11.04a1.408 1.408 0 0 1-.18.95 2.11 2.11 0 0 1-1.09.15 2.009 2.009 0 0 1-1.12-.17 1.463 1.463 0 0 1-.17-.93v-11.04a1.563 1.563 0 0 1 .17-.95 2.7 2.7 0 0 1 1.12-.12Zm10.55 1.07c0-2.68-.86-4.66-2.56-5.95q-2.58-1.995-7.99-2-5.445 0-8.02 2-2.55 1.935-2.55 5.95v11.04q0 4.02 2.55 5.95c1.72 1.34 4.39 2 8.02 2 3.61 0 6.27-.66 7.99-2 1.7-1.29 2.56-3.27 2.56-5.95v-11.04Zm9.4-7.5h-7.93v26.04h9.28v-9l4.23 9h7.93v-26.04h-9.3v9.03Zm31.95 12.89 4.75-12.89h-8.98l-3.16 8.94v-8.94h-9.28v26.04h9.28v-8.92l3.72 8.92h9.93Zm22.85-3.28h-6.87v-2.71h7.9v-6.88h-17.18v26.02h17.18v-6.83h-7.9v-2.75h6.87v-6.85Zm17.78 5.6 7.11-15.21h-9.75l-2 7.39-2.02-7.39h-9.75l7.11 15.21v10.83h9.3v-10.83Zm32.47-2.32 4.74-12.89h-8.98l-3.15 8.94v-8.94h-9.29v26.04h9.29v-8.92l3.71 8.92h9.93Zm17.09-6.46a2.582 2.582 0 0 1 1.09.12 1.489 1.489 0 0 1 .17.95v11.04a1.43 1.43 0 0 1-.17.95 2.11 2.11 0 0 1-1.09.15 2.009 2.009 0 0 1-1.12-.17 1.463 1.463 0 0 1-.17-.93v-11.04a1.563 1.563 0 0 1 .17-.95 2.7 2.7 0 0 1 1.12-.12Zm10.55 1.07c0-2.68-.86-4.66-2.56-5.95q-2.58-1.995-7.99-2-5.445 0-8.02 2-2.55 1.935-2.55 5.95v11.04q0 4.02 2.55 5.95c1.72 1.34 4.39 2 8.02 2 3.61 0 6.27-.66 7.99-2 1.7-1.29 2.56-3.27 2.56-5.95v-11.04Zm9.4-7.5h-7.93v26.04h9.28v-9l4.23 9h7.93v-26.04h-9.3v9.03Zm25.92 11.78v5.43h1.03v1.35a1.463 1.463 0 0 1-.17.93 2.16 2.16 0 0 1-1.1.15 2.234 2.234 0 0 1-1.12-.15 1.463 1.463 0 0 1-.17-.93v-11.06a1.4 1.4 0 0 1 .17-.92 2.488 2.488 0 0 1 1.12-.13 2.4 2.4 0 0 1 1.1.13 1.4 1.4 0 0 1 .17.92v1.8h8.83v-4.83q-1.695-4.905-10.1-4.9-5.43 0-8.01 1.98c-1.71 1.3-2.56 3.29-2.56 5.95v11.06a7.023 7.023 0 0 0 2.56 5.96q2.58 1.965 8.01 1.97 8.4 0 10.1-4.9v-9.81h-9.86Zm-466.91-87.85v-14.83h-11.89v14.83h11.89Zm-13.78 0v-14.83h-11.97v14.83h11.97Zm12.31 41.63v-26.63c-6.8 0-31.95-2.04-45.3-7.63v-21.75h-25.75v79.27h25.75v-30c10.51 3.55 29.28 6.74 45.3 6.74Zm44-23.61v-26.9c-7.4-2.75-26.09-4.35-39.62-4.35v25.48c14.22 0 29.72 3.11 39.62 5.77Zm37.47-4.88v-24.41h-25.32v19.88c0 18.11-8.53 29.3-29.89 29.3h-21.88v26.01h26.44c36.78 0 50.65-21.31 50.65-50.78Zm82.15 42.25v-26.01h-21.88l-1.29-12.25h23.17v-26.01h-25.5c-.08-1.86-.25-3.73-.34-5.32h-26.7c.09 1.15.26 3.01.43 5.32h-24.37v26.01h26.87c.43 4 .86 8.17 1.29 12.25h-28.16v26.01h31.18c.51 3.73 1.03 6.93 1.37 9.41h26.87c-.43-2.66-.94-5.77-1.46-9.41h18.52Zm77.07-17.31v-26.45h-73.81v26.45h73.81Zm76.9 25.84v-77.24h-72.95V6290h47.37v25.04h-47.37v26.01h72.95Zm45.03-45.9v-26.9c-7.41-2.75-26.1-4.35-39.62-4.35v25.48c14.21 0 29.72 3.11 39.62 5.77Zm37.46-4.88v-24.41h-25.32v19.88c0 18.11-8.52 29.3-29.88 29.3h-21.88v26.01h26.44c36.78 0 50.64-21.31 50.64-50.78Zm81.9-13.14v-14.83h-11.89v14.83h11.89Zm-13.78 0v-14.83h-11.97v14.83h11.97Zm12.92 19.62v-17.67h-26.87v-15.18h-35.32c-.86 8.7-8.18 15.45-14.21 17.14v28.05c12.75-2.93 25.5-11.01 29.46-19.09h20.84v2.93c0 13.94-5.6 22.46-31.09 22.46h-15.42v25.92h17.66c41.86 0 54.95-22.1 54.95-44.56Z" transform="translate(-1128.5 -6262.31)" style="fill:#fff;fill-rule:evenodd"/></svg>