<svg xmlns="http://www.w3.org/2000/svg" width="244" height="116.72"><path d="m494.67 5993.75 4.748-12.89h-8.98l-3.158 8.94v-8.94H478v26.04h9.282v-8.92l3.718 8.92h9.926Zm16.211-6.47a2.383 2.383 0 0 1 1.1.13 1.52 1.52 0 0 1 .172.95v11.04a1.421 1.421 0 0 1-.172.94 2.14 2.14 0 0 1-1.1.15 1.917 1.917 0 0 1-1.117-.17 1.368 1.368 0 0 1-.172-.92v-11.04a1.52 1.52 0 0 1 .172-.95 2.459 2.459 0 0 1 1.117-.13Zm10.549 1.08q0-4.02-2.556-5.96-2.579-1.995-7.993-1.99-5.434 0-8.013 1.99-2.557 1.935-2.557 5.96v11.04q0 4.02 2.557 5.95 2.577 1.995 8.013 2 5.415 0 7.993-2 2.556-1.935 2.556-5.95v-11.04Zm12.751-1.08a2.377 2.377 0 0 1 1.095.13 1.52 1.52 0 0 1 .172.95v11.04a1.421 1.421 0 0 1-.172.94 2.135 2.135 0 0 1-1.095.15 1.915 1.915 0 0 1-1.117-.17 1.368 1.368 0 0 1-.172-.92v-11.04a1.52 1.52 0 0 1 .172-.95 2.456 2.456 0 0 1 1.117-.13Zm10.549 1.08q0-4.02-2.557-5.96-2.579-1.995-7.992-1.99-5.436 0-8.014 1.99-2.558 1.935-2.557 5.96v11.04q0 4.02 2.557 5.95 2.578 1.995 8.014 2 5.413 0 7.992-2 2.556-1.935 2.557-5.95v-11.04Zm12.021-.63a4.508 4.508 0 0 1 1.117.07.67.67 0 0 1 .172.58v3.52a.947.947 0 0 1-.172.71 3.125 3.125 0 0 1-1.117.11h-1.268v-4.99h1.268Zm0 11.84q5.177 0 7.863-1.93a6.643 6.643 0 0 0 2.707-5.74v-3.84q0-7.2-10.57-7.2H546.2v26.04h9.281v-7.33h1.268Zm20.163-1.83 1.225-10.5 1.224 10.5h-2.449Zm3.5 9.16h9.386l-4.061-26.02h-15.206l-4.06 26.02h9.388l.28-2.32h4Zm-22.108-80.5v-32.84h-64.091c-.888 8.7-8.434 15.45-14.648 17.13v28.05c13.138-2.93 26.277-11 30.36-19.08h21.483v2.93c0 13.93-5.77 22.46-32.047 22.46h-15.89v25.92h18.2c43.142 0 56.635-22.11 56.635-44.57Zm80.521 1.07v-21.57h-24.411v16.07c0 5.59-.8 10.2-2.929 13.84l-1.154-29.91h-22.016l1.332 33.82h18.731c-5.327 4.79-14.737 7.1-30.361 7.1h-7.9v23.88h12.073c39.237 0 56.637-18.37 56.637-43.23Zm-51.927 12.25-1.332-33.82h-21.93l1.154 33.82H586.9Zm135.115-38.08a10.832 10.832 0 1 0-21.661 0 10.832 10.832 0 0 0 21.658 0Zm-1.332 69.06c-.444-11.36-3.018-36.48-5.859-56.9a10.433 10.433 0 0 1-3.639.53 12.633 12.633 0 0 1-12.7-12.69 13.1 13.1 0 0 1 3.374-8.7h-18.2c4.084 20.33 8.078 63.2 9.055 77.76h27.966Zm-44.741-77.76h-27.7c-.977 13.85-5.593 62.14-7.99 77.76h27.964c2.219-14.2 6.658-61.52 7.723-77.76Zm38.172 8.7c0 1.42-1.6 2.66-3.107 2.66a2.728 2.728 0 0 1-2.663-2.66 2.852 2.852 0 0 1 2.663-2.93 3.177 3.177 0 0 1 3.104 2.93Z" transform="translate(-478 -5890.62)" style="fill:#fff;fill-rule:evenodd"/></svg>